<svg width="50" height="50" viewBox="0 0 50 50" fill="none" xmlns="http://www.w3.org/2000/svg">
<g clip-path="url(#clip0_3_491)">
<path d="M43.2622 0H6.73784C3.01684 0 0.000244141 3.01648 0.000244141 6.7376V43.2622C0.000244141 46.9833 3.01672 49.9998 6.73784 49.9998H24.7515L24.7822 32.1325H20.1403C19.537 32.1325 19.0474 31.6448 19.0451 31.0415L19.0228 25.2822C19.0205 24.6756 19.5116 24.1827 20.1181 24.1827H24.7516V18.6177C24.7516 12.1596 28.6958 8.64311 34.4569 8.64311H39.1842C39.7891 8.64311 40.2796 9.13346 40.2796 9.73842V14.5947C40.2796 15.1994 39.7894 15.6897 39.1849 15.69L36.2837 15.6914C33.1507 15.6914 32.544 17.1802 32.544 19.3651V24.1828H39.4284C40.0843 24.1828 40.5933 24.7556 40.516 25.4071L39.8334 31.1664C39.768 31.7175 39.3007 32.1328 38.7458 32.1328H32.5747L32.544 50H43.2624C46.9834 50 49.9999 46.9835 49.9999 43.2625V6.7376C49.9998 3.01648 46.9833 0 43.2622 0Z" fill="white"/>
<path d="M24.7822 32.1325L24.7515 49.9998L32.544 50L32.5747 32.1328H38.7458C39.3007 32.1328 39.768 31.7175 39.8334 31.1664L40.516 25.4071C40.5933 24.7556 40.0843 24.1828 39.4284 24.1828H32.544V19.3651C32.544 17.1802 33.1507 15.6914 36.2837 15.6914L39.1849 15.69C39.7894 15.6897 40.2796 15.1994 40.2796 14.5947V9.73842C40.2796 9.13346 39.7891 8.64311 39.1842 8.64311H34.4569C28.6958 8.64311 24.7516 12.1596 24.7516 18.6177V24.1827H20.1181C19.5116 24.1827 19.0205 24.6756 19.0228 25.2822L19.0451 31.0415C19.0474 31.6448 19.537 32.1325 20.1403 32.1325H24.7822Z" fill="#475993"/>
</g>
<defs>
<clipPath id="clip0_3_491">
<rect width="50" height="50" fill="white"/>
</clipPath>
</defs>
</svg>
