<svg width="99" height="48" viewBox="0 0 99 48" fill="none" xmlns="http://www.w3.org/2000/svg">
<g clip-path="url(#clip0_3_445)">
<path d="M3.4375 17.9531L8.4375 17.1523V21.0781L8.28125 26.5273C8.76302 26.4492 9.21875 26.3646 9.64844 26.2734L10.918 25.9609C11.3346 25.8568 11.7448 25.7396 12.1484 25.6094L13.4375 25.1602C14.0495 23.2201 14.3555 20.8503 14.3555 18.0508C14.3555 17.0091 14.3034 16.3516 14.1992 16.0781C12.4805 15.5312 9.34245 15.1927 4.78516 15.0625C3.61328 15.0365 2.52604 15.0039 1.52344 14.9648L2.26562 10.3555C8.41146 10.5898 12.9102 11.0456 15.7617 11.7227C16.2174 11.8398 16.7448 12.1979 17.3438 12.7969C18.4766 13.9297 19.0885 14.8411 19.1797 15.5312C19.2839 16.2083 19.3359 17.1719 19.3359 18.4219C19.3359 19.6589 19.1732 21.1432 18.8477 22.875C18.5221 24.6068 17.9948 26.3255 17.2656 28.0312C16.9792 28.7083 16.3281 29.125 15.3125 29.2812L8.39844 30.5117L8.16406 35.9609L3.78906 36.3906L3.4375 17.9531ZM23.6328 8.12891L28.4766 7.23047L28.6133 21.3125L28.0078 36L23.8867 36.3516L23.6328 8.12891ZM46.6992 37.4062C41.3346 36.8594 37.1289 36.0456 34.082 34.9648C33.5221 34.7565 33.151 33.5586 32.9688 31.3711C32.8125 29.3659 32.9818 27.6276 33.4766 26.1562C33.6849 25.5443 33.9323 25.2057 34.2188 25.1406C35.4427 24.8151 36.7318 24.5807 38.0859 24.4375L42.1484 23.9883L42.0703 21.2344C40.651 20.9609 39.2383 20.7461 37.832 20.5898C36.4388 20.4206 35.0521 20.2253 33.6719 20.0039L34.707 15.7266L38.0078 16.2148C41.0286 16.6576 43.431 17.1979 45.2148 17.8359C46.0742 18.1484 46.5039 18.7799 46.5039 19.7305L46.582 30.4336L42.4219 30.8438L42.3047 27.5039L41.1914 27.7188C39.9414 27.9271 38.75 28.1875 37.6172 28.5C37.474 29.1901 37.4023 29.763 37.4023 30.2188C37.4023 30.8828 37.4284 31.3971 37.4805 31.7617C39.3164 32.1784 42.1484 32.6016 45.9766 33.0312L47.5781 33.207L46.6992 37.4062ZM51.4648 17.3281L55.625 16.8008L56.3086 19.7695L59.7461 16.8008H64.5508C64.7982 16.8008 65.1432 16.9896 65.5859 17.3672C66.3281 17.9792 66.6992 18.526 66.6992 19.0078L66.0156 36.0391L61.6602 36.3906L61.582 21.3125C61.4258 21.2604 61.2109 21.2344 60.9375 21.2344C60.6641 21.2344 60.4102 21.2474 60.1758 21.2734C59.9544 21.2995 59.7135 21.3385 59.4531 21.3906C58.8411 21.4948 58.3398 21.6185 57.9492 21.7617L56.5039 22.2891L55.9766 35.8438L51.8164 36.1562L51.4648 17.3281ZM82.8125 14.5938L79.4531 14.9648L79.4922 23.2461L78.9258 32.3086L82.5 32.4453L82.168 36.4883C77.5456 36.4232 73.8281 36.1432 71.0156 35.6484L71.4062 31.9961L74.7852 32.1328L74.4922 15.2773C73.2943 15.3294 72.0964 15.3945 70.8984 15.4727L70.5273 11.7227C72.7279 11.3711 74.9935 11.1237 77.3242 10.9805L82.2852 10.6484L82.8125 14.5938ZM87.168 12.1523L91.9336 11.2344V17.3672L96.8359 16.4492L97.207 20.8828L92.0117 21.2734L91.6406 31.8398C92.6042 32.1393 93.4375 32.3737 94.1406 32.543C95.8984 32.9596 96.9727 33.2201 97.3633 33.3242L96.3281 37.4062C93.4375 36.7682 90.9049 36.0326 88.7305 35.1992C87.8451 34.8737 87.4023 34.2878 87.4023 33.4414L87.168 12.1523Z" fill="#1D1D1B"/>
</g>
<defs>
<clipPath id="clip0_3_445">
<rect width="99" height="48" fill="white"/>
</clipPath>
</defs>
</svg>
