<svg width="383" height="374" viewBox="0 0 383 374" fill="none" xmlns="http://www.w3.org/2000/svg">
<g clip-path="url(#clip0_3_2185)">
<path d="M234.86 109.194L234.256 108.711" stroke="#1F2F6D" stroke-width="3" stroke-linecap="round" stroke-linejoin="round"/>
<path d="M230.865 106.168C229.055 104.86 227.206 103.603 225.317 102.399" stroke="#1F2F6D" stroke-width="3" stroke-linecap="round" stroke-linejoin="round" stroke-dasharray="4.78 8.6"/>
<path d="M222.624 100.726C205.707 90.548 186.51 84.8742 166.832 84.2354" stroke="#1F2F6D" stroke-width="3" stroke-linecap="round" stroke-linejoin="round" stroke-dasharray="1.91 5.74 4.78 8.6"/>
<path d="M163.712 84.1836H162.977" stroke="#1F2F6D" stroke-width="3" stroke-linecap="round" stroke-linejoin="round"/>
<path d="M279.601 194.389C278.557 178.597 274.378 163.179 267.314 149.054C260.249 134.928 250.443 122.384 238.48 112.168" stroke="#1F2F6D" stroke-width="3" stroke-linecap="round" stroke-linejoin="round"/>
<path d="M284.266 190.427L279.454 192.746L274.465 190.858L279.866 202.382L284.266 190.427Z" fill="#1F2F6D"/>
<path d="M161.086 309.577C219.542 309.577 266.931 261.69 266.931 202.62C266.931 143.549 219.542 95.6626 161.086 95.6626C102.629 95.6626 55.2402 143.549 55.2402 202.62C55.2402 261.69 102.629 309.577 161.086 309.577Z" fill="#FFE1D9"/>
<g style="mix-blend-mode:multiply">
<path d="M226.824 267.305C260.777 232.995 260.777 177.367 226.824 143.056C192.87 108.746 137.82 108.746 103.866 143.056C69.9126 177.367 69.9126 232.995 103.866 267.305C137.82 301.615 192.87 301.615 226.824 267.305Z" fill="#FFD7CC"/>
<path d="M316.661 262.441V260.537C316.661 260.159 316.512 259.796 316.247 259.528C315.982 259.26 315.623 259.11 315.248 259.11H311.297V255.89C311.297 255.658 311.206 255.435 311.043 255.27C310.88 255.106 310.659 255.013 310.429 255.013H303.94C303.826 255.013 303.713 255.036 303.609 255.08C303.504 255.124 303.408 255.189 303.328 255.271C303.248 255.352 303.185 255.449 303.142 255.555C303.099 255.662 303.078 255.776 303.079 255.89V259.11H299.128C298.752 259.11 298.392 259.26 298.126 259.527C297.86 259.795 297.71 260.158 297.708 260.537V262.441H284.376V322.893H329.993V262.441H316.661ZM306.36 255.98H308.038C308.158 255.968 308.279 255.983 308.394 256.022C308.508 256.06 308.613 256.123 308.703 256.205C308.792 256.287 308.863 256.387 308.912 256.499C308.961 256.611 308.986 256.731 308.986 256.853C308.986 256.975 308.961 257.096 308.912 257.208C308.863 257.319 308.792 257.419 308.703 257.502C308.613 257.584 308.508 257.646 308.394 257.685C308.279 257.724 308.158 257.738 308.038 257.727H306.36C306.145 257.707 305.944 257.606 305.799 257.444C305.653 257.283 305.572 257.072 305.572 256.853C305.572 256.635 305.653 256.424 305.799 256.262C305.944 256.101 306.145 256 306.36 255.98Z" fill="#FFD7CC"/>
<path d="M248.341 323.245C257.639 321.719 263.952 312.867 262.443 303.472C260.934 294.077 252.173 287.697 242.876 289.222C233.579 290.747 227.265 299.6 228.774 308.995C230.283 318.39 239.044 324.77 248.341 323.245Z" fill="#FFD7CC"/>
<path d="M316.901 229.002C320.506 220.208 316.373 210.127 307.671 206.484C298.969 202.842 288.992 207.018 285.388 215.811C281.783 224.605 285.916 234.686 294.618 238.329C303.32 241.971 313.296 237.795 316.901 229.002Z" fill="#FFD7CC"/>
<path d="M36.1917 183.936C45.6108 183.936 53.2465 176.221 53.2465 166.703C53.2465 157.185 45.6108 149.469 36.1917 149.469C26.7726 149.469 19.137 157.185 19.137 166.703C19.137 176.221 26.7726 183.936 36.1917 183.936Z" fill="#FFD7CC"/>
<path d="M131.508 104.126C133.018 94.7311 126.704 85.8787 117.407 84.3537C108.109 82.8286 99.3487 89.2085 97.8395 98.6035C96.3304 107.999 102.644 116.851 111.941 118.376C121.239 119.901 129.999 113.521 131.508 104.126Z" fill="#FFD7CC"/>
<path d="M77.9458 152.695C82.8951 152.695 86.9073 148.641 86.9073 143.64C86.9073 138.638 82.8951 134.584 77.9458 134.584C72.9966 134.584 68.9844 138.638 68.9844 143.64C68.9844 148.641 72.9966 152.695 77.9458 152.695Z" fill="#FFD7CC"/>
<path d="M260.279 266.151C266.369 265.393 270.698 259.79 269.948 253.637C269.198 247.483 263.654 243.108 257.564 243.866C251.474 244.624 247.145 250.227 247.895 256.381C248.645 262.534 254.189 266.909 260.279 266.151Z" fill="#FFD7CC"/>
<path d="M73.9506 120.897V78.4291C73.9506 77.8895 73.8453 77.3552 73.6407 76.8568C73.4362 76.3584 73.1364 75.9057 72.7584 75.5245C72.3805 75.1433 71.9319 74.8411 71.4383 74.6353C70.9447 74.4295 70.4158 74.3241 69.8819 74.3251H68.5502V72.2508C68.5502 71.8978 68.4114 71.5593 68.1644 71.3097C67.9174 71.0601 67.5825 70.9199 67.2332 70.9199H66.8726C66.5233 70.9199 66.1884 71.0601 65.9414 71.3097C65.6944 71.5593 65.5556 71.8978 65.5556 72.2508V74.3251H62.9952V72.2508C62.9952 71.8978 62.8565 71.5593 62.6095 71.3097C62.3625 71.0601 62.0275 70.9199 61.6782 70.9199H61.3103C60.9611 70.9199 60.6261 71.0601 60.3791 71.3097C60.1321 71.5593 59.9933 71.8978 59.9933 72.2508V74.3251H57.4329V72.2508C57.4329 71.8978 57.2942 71.5593 57.0472 71.3097C56.8002 71.0601 56.4652 70.9199 56.1159 70.9199H55.7554C55.4061 70.9199 55.0711 71.0601 54.8242 71.3097C54.5772 71.5593 54.4384 71.8978 54.4384 72.2508V74.3251H51.878V72.2508C51.878 71.8978 51.7392 71.5593 51.4923 71.3097C51.2453 71.0601 50.9103 70.9199 50.561 70.9199H50.2005C49.8512 70.9199 49.5162 71.0601 49.2692 71.3097C49.0222 71.5593 48.8835 71.8978 48.8835 72.2508V74.3251H46.3304V72.2508C46.3304 72.076 46.2963 71.9029 46.2302 71.7415C46.164 71.58 46.067 71.4333 45.9447 71.3097C45.8224 71.1861 45.6772 71.0881 45.5174 71.0212C45.3576 70.9543 45.1864 70.9199 45.0134 70.9199H44.6529C44.3036 70.9199 43.9686 71.0601 43.7216 71.3097C43.4746 71.5593 43.3359 71.8978 43.3359 72.2508V74.3251H40.7681V72.2508C40.7681 71.8978 40.6294 71.5593 40.3824 71.3097C40.1354 71.0601 39.8004 70.9199 39.4511 70.9199H39.0906C38.7413 70.9199 38.4063 71.0601 38.1593 71.3097C37.9124 71.5593 37.7736 71.8978 37.7736 72.2508V74.3251H35.2132V72.2508C35.2132 71.8978 35.0744 71.5593 34.8274 71.3097C34.5805 71.0601 34.2455 70.9199 33.8962 70.9199H33.5283C33.3554 70.9199 33.1841 70.9543 33.0243 71.0212C32.8645 71.0881 32.7193 71.1861 32.5971 71.3097C32.4748 71.4333 32.3777 71.58 32.3116 71.7415C32.2454 71.9029 32.2113 72.076 32.2113 72.2508V74.3251H29.6509V72.2508C29.6509 71.8978 29.5121 71.5593 29.2652 71.3097C29.0182 71.0601 28.6832 70.9199 28.3339 70.9199H27.9734C27.6241 70.9199 27.2891 71.0601 27.0421 71.3097C26.7951 71.5593 26.6564 71.8978 26.6564 72.2508V74.3251H24.0886V72.2508C24.0886 71.8978 23.9498 71.5593 23.7029 71.3097C23.4559 71.0601 23.1209 70.9199 22.7716 70.9199H22.4479C22.0986 70.9199 21.7636 71.0601 21.5166 71.3097C21.2696 71.5593 21.1309 71.8978 21.1309 72.2508V74.3251H18.5337V72.2508C18.5337 71.8978 18.3949 71.5593 18.1479 71.3097C17.9009 71.0601 17.566 70.9199 17.2167 70.9199H16.8561C16.5069 70.9199 16.1719 71.0601 15.9249 71.3097C15.6779 71.5593 15.5391 71.8978 15.5391 72.2508V74.3251H12.9714V72.2508C12.9714 71.8978 12.8326 71.5593 12.5856 71.3097C12.3386 71.0601 12.0037 70.9199 11.6544 70.9199H11.2938C10.9446 70.9199 10.6096 71.0601 10.3626 71.3097C10.1156 71.5593 9.97685 71.8978 9.97685 72.2508V74.3251H8.64514C8.11118 74.3241 7.58226 74.4295 7.08866 74.6353C6.59507 74.8411 6.14648 75.1433 5.76857 75.5245C5.39065 75.9057 5.09084 76.3584 4.88628 76.8568C4.68171 77.3552 4.57642 77.8895 4.57642 78.4291V120.897C4.57545 121.437 4.68003 121.972 4.88416 122.471C5.08829 122.97 5.38795 123.424 5.76596 123.806C6.14397 124.188 6.59289 124.491 7.08696 124.697C7.58104 124.903 8.11056 125.009 8.64514 125.008H69.8966C70.4299 125.007 70.9579 124.9 71.4502 124.693C71.9426 124.486 72.3898 124.183 72.7662 123.801C73.1427 123.419 73.441 122.966 73.6442 122.468C73.8475 121.969 73.9516 121.436 73.9506 120.897Z" fill="#FFD7CC"/>
</g>
<path d="M87.9299 295.622L88.5406 296.097" stroke="#1F2F6D" stroke-width="3" stroke-linecap="round" stroke-linejoin="round"/>
<path d="M91.9028 298.64C93.7128 299.949 95.5595 301.205 97.4431 302.41" stroke="#1F2F6D" stroke-width="3" stroke-linecap="round" stroke-linejoin="round" stroke-dasharray="4.78 8.6"/>
<path d="M100.144 304.083C117.063 314.254 136.259 319.925 155.936 320.565" stroke="#1F2F6D" stroke-width="3" stroke-linecap="round" stroke-linejoin="round" stroke-dasharray="1.91 5.74 4.78 8.6"/>
<path d="M159.092 320.662H159.864" stroke="#1F2F6D" stroke-width="3" stroke-linecap="round" stroke-linejoin="round"/>
<path d="M43.1665 210.426C44.2112 226.218 48.3903 241.636 55.4549 255.761C62.5195 269.887 72.3252 282.432 84.2877 292.648" stroke="#1F2F6D" stroke-width="3" stroke-linecap="round" stroke-linejoin="round"/>
<path d="M38.502 214.389L43.3138 212.069L48.3022 213.965L42.9018 202.441L38.502 214.389Z" fill="#1F2F6D"/>
<path d="M161.137 290.484C209.155 290.484 248.081 251.149 248.081 202.627C248.081 154.105 209.155 114.77 161.137 114.77C113.119 114.77 74.1934 154.105 74.1934 202.627C74.1934 251.149 113.119 290.484 161.137 290.484Z" fill="#1F2F6D"/>
<path d="M161.137 283.25C205.201 283.25 240.922 247.154 240.922 202.627C240.922 158.101 205.201 122.004 161.137 122.004C117.073 122.004 81.3523 158.101 81.3523 202.627C81.3523 247.154 117.073 283.25 161.137 283.25Z" fill="white" stroke="#1F2F6D" stroke-miterlimit="10"/>
<path d="M161.137 202.619L120.928 272.261C108.891 265.153 98.9045 254.984 91.9615 242.767C85.0185 230.549 81.3609 216.708 81.3523 202.619V202.136L161.137 202.619Z" fill="#A1B3FF" stroke="#1F2F6D" stroke-miterlimit="10"/>
<path d="M161.137 202.62L160.77 122.004H161.152C204.922 122.004 240.937 158.435 240.937 202.627L161.137 202.62Z" fill="#FF6666" stroke="#1F2F6D" stroke-miterlimit="10"/>
<path d="M161.137 202.62H240.922C240.922 246.849 204.907 283.243 161.137 283.243C147.053 283.247 133.218 279.484 121.039 272.336L161.137 202.62Z" fill="#4DC7B8" stroke="#1F2F6D" stroke-miterlimit="10"/>
<path d="M161.137 202.62H240.922C240.912 216.496 237.365 230.136 230.622 242.225L161.137 202.62Z" fill="#FFC773" stroke="#1F2F6D" stroke-miterlimit="10"/>
<path d="M162.395 200.419L130.243 181.631C129.664 181.294 128.977 181.203 128.332 181.378C127.687 181.553 127.137 181.98 126.803 182.564C126.47 183.149 126.38 183.844 126.553 184.496C126.726 185.147 127.148 185.703 127.727 186.04L159.879 204.798L162.395 200.419Z" fill="#1F2F6D"/>
<path d="M213.92 173.297C214.065 173.213 214.192 173.102 214.295 172.969C214.397 172.836 214.472 172.683 214.516 172.521C214.561 172.358 214.572 172.188 214.552 172.021C214.531 171.854 214.477 171.692 214.395 171.546C214.312 171.399 214.202 171.271 214.07 171.168C213.938 171.064 213.788 170.988 213.627 170.944C213.466 170.899 213.298 170.887 213.132 170.908C212.967 170.929 212.807 170.983 212.662 171.066L160.505 201.497L161.763 203.727L213.92 173.297Z" fill="#1F2F6D"/>
<path d="M158.621 207.029C157.759 206.526 157.065 205.776 156.625 204.874C156.185 203.972 156.019 202.959 156.149 201.962C156.279 200.965 156.698 200.03 157.354 199.273C158.01 198.517 158.873 197.975 159.834 197.714C160.795 197.453 161.811 197.486 162.753 197.809C163.696 198.131 164.522 198.729 165.129 199.526C165.735 200.323 166.094 201.284 166.16 202.287C166.226 203.291 165.997 204.291 165.5 205.163C164.832 206.331 163.733 207.184 162.443 207.534C161.153 207.884 159.778 207.702 158.621 207.029Z" fill="#1F2F6D"/>
<path d="M177.501 192.293C177.646 192.211 177.816 192.189 177.977 192.232C178.138 192.275 178.276 192.379 178.361 192.523C178.443 192.67 178.464 192.843 178.422 193.005C178.379 193.167 178.276 193.306 178.133 193.393L108.884 234.121C108.741 234.206 108.57 234.23 108.409 234.188C108.247 234.146 108.109 234.042 108.023 233.898C107.981 233.826 107.954 233.746 107.942 233.663C107.931 233.58 107.936 233.496 107.957 233.415C107.979 233.334 108.016 233.258 108.066 233.192C108.116 233.125 108.18 233.07 108.251 233.028L177.501 192.293Z" fill="#B53E44"/>
<path d="M159.879 204.828C159.448 204.577 159.1 204.203 158.879 203.752C158.658 203.302 158.574 202.795 158.638 202.296C158.703 201.797 158.912 201.329 159.239 200.951C159.567 200.572 159.998 200.3 160.478 200.169C160.959 200.038 161.467 200.054 161.938 200.215C162.41 200.375 162.824 200.674 163.127 201.072C163.431 201.471 163.611 201.951 163.644 202.453C163.678 202.955 163.563 203.455 163.315 203.891C163.15 204.181 162.931 204.435 162.669 204.638C162.407 204.842 162.108 204.992 161.789 205.079C161.47 205.166 161.137 205.188 160.809 205.145C160.482 205.102 160.166 204.994 159.879 204.828Z" fill="#FF6666"/>
<path d="M153.279 127.045C153.238 127.049 153.198 127.061 153.161 127.08C153.125 127.1 153.092 127.127 153.066 127.16C153.04 127.192 153.021 127.23 153.009 127.27C152.998 127.311 152.995 127.353 153 127.394L153.265 129.922C153.268 129.963 153.28 130.003 153.299 130.04C153.318 130.076 153.344 130.109 153.376 130.135C153.407 130.161 153.443 130.181 153.483 130.193C153.522 130.205 153.563 130.209 153.603 130.205C153.685 130.194 153.76 130.151 153.812 130.086C153.864 130.021 153.889 129.939 153.883 129.855L153.618 127.328C153.614 127.286 153.603 127.247 153.583 127.21C153.564 127.174 153.538 127.141 153.507 127.115C153.476 127.089 153.439 127.069 153.4 127.057C153.361 127.045 153.32 127.041 153.279 127.045Z" fill="#1F2F6D"/>
<path d="M145.87 128.532C145.853 128.45 145.804 128.379 145.734 128.333C145.665 128.288 145.58 128.273 145.499 128.29C145.418 128.308 145.347 128.358 145.302 128.428C145.258 128.498 145.242 128.584 145.26 128.666L145.782 131.149C145.8 131.232 145.849 131.304 145.92 131.35C145.99 131.396 146.075 131.412 146.157 131.394C146.237 131.377 146.307 131.327 146.351 131.258C146.395 131.188 146.41 131.103 146.393 131.023L145.87 128.532Z" fill="#1F2F6D"/>
<path d="M138.292 130.554C138.28 130.514 138.26 130.477 138.233 130.445C138.206 130.413 138.173 130.386 138.136 130.367C138.099 130.348 138.059 130.336 138.018 130.332C137.976 130.329 137.935 130.333 137.895 130.346C137.817 130.375 137.754 130.432 137.717 130.507C137.68 130.582 137.673 130.668 137.696 130.748L138.476 133.164C138.488 133.203 138.507 133.24 138.534 133.272C138.56 133.304 138.592 133.33 138.629 133.349C138.665 133.368 138.705 133.379 138.746 133.381C138.787 133.384 138.828 133.378 138.866 133.365C138.906 133.353 138.942 133.333 138.974 133.307C139.006 133.28 139.032 133.248 139.051 133.211C139.07 133.175 139.082 133.134 139.086 133.093C139.089 133.052 139.085 133.01 139.072 132.971L138.292 130.554Z" fill="#1F2F6D"/>
<path d="M130.964 133.357C130.925 133.289 130.862 133.238 130.788 133.214C130.713 133.19 130.633 133.195 130.562 133.227C130.491 133.259 130.434 133.317 130.402 133.389C130.371 133.461 130.366 133.542 130.39 133.617L131.413 135.937C131.453 136.002 131.515 136.051 131.588 136.073C131.66 136.096 131.738 136.092 131.808 136.061C131.878 136.03 131.934 135.976 131.967 135.906C132 135.837 132.007 135.758 131.987 135.684L130.964 133.357Z" fill="#1F2F6D"/>
<path d="M117.36 141.208C117.31 141.142 117.237 141.099 117.156 141.086C117.075 141.074 116.993 141.093 116.926 141.141C116.893 141.165 116.865 141.196 116.844 141.231C116.823 141.267 116.809 141.306 116.802 141.347C116.796 141.387 116.798 141.429 116.808 141.469C116.818 141.509 116.835 141.547 116.86 141.58L118.331 143.639C118.38 143.706 118.453 143.751 118.535 143.764C118.616 143.776 118.699 143.756 118.765 143.706C118.832 143.657 118.876 143.583 118.888 143.501C118.901 143.418 118.88 143.335 118.832 143.268L117.36 141.208Z" fill="#1F2F6D"/>
<path d="M111.253 146.175C111.225 146.145 111.191 146.122 111.154 146.106C111.117 146.09 111.077 146.082 111.036 146.082C110.996 146.082 110.956 146.09 110.918 146.106C110.881 146.122 110.847 146.145 110.819 146.175C110.762 146.234 110.729 146.314 110.729 146.398C110.729 146.481 110.762 146.561 110.819 146.621L112.504 148.509C112.563 148.567 112.642 148.6 112.725 148.6C112.807 148.6 112.886 148.567 112.946 148.509C112.975 148.48 112.998 148.445 113.014 148.407C113.03 148.369 113.038 148.328 113.038 148.286C113.038 148.245 113.03 148.203 113.014 148.165C112.998 148.127 112.975 148.092 112.946 148.063L111.253 146.175Z" fill="#1F2F6D"/>
<path d="M105.691 151.751C105.629 151.695 105.548 151.666 105.466 151.67C105.383 151.674 105.305 151.711 105.249 151.773C105.194 151.835 105.165 151.917 105.169 152.001C105.173 152.085 105.21 152.163 105.272 152.219L107.14 153.922C107.199 153.98 107.279 154.013 107.361 154.013C107.444 154.013 107.523 153.98 107.582 153.922C107.611 153.894 107.634 153.86 107.65 153.822C107.666 153.784 107.674 153.744 107.674 153.703C107.674 153.662 107.666 153.621 107.65 153.584C107.634 153.546 107.611 153.512 107.582 153.483L105.691 151.751Z" fill="#1F2F6D"/>
<path d="M100.732 157.885C100.699 157.86 100.662 157.842 100.622 157.832C100.583 157.823 100.541 157.821 100.501 157.827C100.461 157.833 100.422 157.847 100.387 157.869C100.352 157.89 100.322 157.918 100.298 157.952C100.248 158.02 100.227 158.105 100.24 158.189C100.252 158.272 100.297 158.347 100.364 158.398L102.402 159.885C102.47 159.932 102.553 159.95 102.634 159.936C102.715 159.923 102.788 159.877 102.836 159.81C102.861 159.777 102.878 159.74 102.888 159.7C102.898 159.66 102.9 159.618 102.894 159.577C102.887 159.536 102.873 159.497 102.852 159.462C102.831 159.427 102.803 159.396 102.77 159.372L100.732 157.885Z" fill="#1F2F6D"/>
<path d="M95.1477 172.59L92.8448 171.55C92.7684 171.519 92.6833 171.519 92.6068 171.549C92.5303 171.579 92.468 171.638 92.4327 171.713C92.4005 171.79 92.3994 171.877 92.4296 171.955C92.4599 172.032 92.5191 172.095 92.5946 172.129L94.8902 173.163C94.9278 173.18 94.9684 173.189 95.0096 173.19C95.0509 173.191 95.0919 173.184 95.1303 173.169C95.1687 173.154 95.2037 173.131 95.2332 173.102C95.2628 173.073 95.2862 173.038 95.3022 172.999C95.3193 172.962 95.3288 172.922 95.3302 172.881C95.3317 172.841 95.325 172.8 95.3106 172.762C95.2962 172.724 95.2743 172.689 95.2463 172.659C95.2184 172.63 95.1848 172.606 95.1477 172.59Z" fill="#1F2F6D"/>
<path d="M89.8135 179.535L92.2047 180.323C92.2805 180.338 92.3593 180.325 92.4263 180.286C92.4933 180.247 92.5438 180.185 92.5683 180.111C92.5927 180.036 92.5895 179.956 92.5591 179.884C92.5287 179.812 92.4733 179.754 92.4034 179.721L90.0048 178.94C89.9662 178.926 89.9253 178.92 89.8844 178.923C89.8435 178.926 89.8037 178.937 89.7672 178.956C89.7307 178.974 89.6984 179 89.6722 179.032C89.646 179.064 89.6265 179.101 89.6149 179.141C89.6022 179.18 89.5974 179.221 89.6005 179.262C89.6037 179.303 89.6148 179.343 89.6333 179.379C89.6517 179.416 89.6772 179.448 89.7081 179.475C89.739 179.502 89.7748 179.522 89.8135 179.535Z" fill="#1F2F6D"/>
<path d="M87.8122 187.193L90.2769 187.72C90.3171 187.731 90.3589 187.733 90.3999 187.727C90.4409 187.72 90.4802 187.706 90.5155 187.684C90.5508 187.662 90.5813 187.633 90.6053 187.599C90.6293 187.564 90.6463 187.526 90.6551 187.485C90.664 187.444 90.6647 187.402 90.6571 187.36C90.6494 187.319 90.6337 187.28 90.6108 187.245C90.5878 187.21 90.5582 187.18 90.5236 187.157C90.489 187.134 90.4501 187.118 90.4094 187.111L87.9446 186.583C87.8646 186.565 87.7809 186.58 87.7119 186.625C87.643 186.67 87.5943 186.74 87.5767 186.821C87.5592 186.902 87.5742 186.986 87.6183 187.056C87.6625 187.126 87.7322 187.175 87.8122 187.193Z" fill="#1F2F6D"/>
<path d="M86.6202 195.014L89.1218 195.282C89.1624 195.286 89.2034 195.282 89.2426 195.271C89.2817 195.259 89.3182 195.24 89.35 195.214C89.3818 195.188 89.4082 195.156 89.4277 195.12C89.4473 195.084 89.4596 195.044 89.4639 195.003C89.4683 194.962 89.4646 194.921 89.4531 194.881C89.4416 194.841 89.4224 194.805 89.3968 194.772C89.3712 194.74 89.3396 194.714 89.3037 194.694C89.2679 194.674 89.2286 194.662 89.188 194.657L86.6864 194.39C86.604 194.383 86.5222 194.409 86.4579 194.461C86.3936 194.514 86.3517 194.589 86.3406 194.672C86.3366 194.713 86.3406 194.755 86.3525 194.794C86.3644 194.834 86.3839 194.87 86.4099 194.902C86.4359 194.934 86.4679 194.96 86.504 194.979C86.5401 194.999 86.5796 195.01 86.6202 195.014Z" fill="#1F2F6D"/>
<path d="M89.4678 210.233C89.4585 210.149 89.4171 210.073 89.3523 210.02C89.2876 209.967 89.2048 209.942 89.122 209.95L86.6204 210.218C86.5799 210.222 86.5405 210.235 86.5047 210.255C86.4689 210.274 86.4373 210.301 86.4116 210.333C86.386 210.365 86.3669 210.402 86.3554 210.442C86.3439 210.481 86.3402 210.523 86.3445 210.564C86.3489 210.605 86.3612 210.644 86.3807 210.681C86.4003 210.717 86.4267 210.749 86.4585 210.775C86.4902 210.801 86.5267 210.82 86.5659 210.832C86.605 210.843 86.6461 210.847 86.6867 210.842L89.1882 210.575C89.2289 210.571 89.2684 210.559 89.3045 210.54C89.3406 210.521 89.3726 210.495 89.3986 210.463C89.4246 210.431 89.4441 210.394 89.4559 210.355C89.4678 210.315 89.4719 210.274 89.4678 210.233Z" fill="#1F2F6D"/>
<path d="M90.6448 217.764C90.6369 217.724 90.6211 217.685 90.5983 217.651C90.5754 217.616 90.546 217.587 90.5118 217.564C90.4775 217.541 90.4391 217.525 90.3988 217.518C90.3585 217.51 90.3171 217.51 90.2769 217.519L87.8122 218.047C87.7322 218.065 87.6625 218.114 87.6183 218.184C87.5742 218.253 87.5592 218.338 87.5767 218.419C87.5846 218.459 87.6004 218.498 87.6233 218.533C87.6461 218.567 87.6755 218.596 87.7098 218.619C87.744 218.642 87.7824 218.658 87.8227 218.666C87.8631 218.673 87.9045 218.673 87.9446 218.664L90.4094 218.136C90.4894 218.118 90.5591 218.069 90.6032 218C90.6474 217.93 90.6623 217.845 90.6448 217.764Z" fill="#1F2F6D"/>
<path d="M92.6018 225.125C92.5894 225.085 92.5691 225.048 92.5422 225.016C92.5153 224.984 92.4823 224.958 92.4453 224.939C92.4082 224.92 92.3678 224.909 92.3264 224.907C92.2851 224.904 92.2436 224.91 92.2045 224.924L89.8133 225.667C89.7346 225.695 89.6697 225.752 89.6325 225.827C89.5954 225.902 89.5889 225.989 89.6146 226.069C89.6272 226.108 89.6472 226.144 89.6736 226.175C89.6999 226.207 89.7322 226.232 89.7684 226.251C89.8046 226.27 89.8441 226.281 89.8847 226.284C89.9252 226.287 89.966 226.282 90.0046 226.27L92.3958 225.482C92.4673 225.458 92.5276 225.408 92.5656 225.342C92.6035 225.277 92.6164 225.199 92.6018 225.125Z" fill="#1F2F6D"/>
<path d="M94.8901 232.076L92.5872 233.117C92.5121 233.152 92.4536 233.215 92.4246 233.293C92.3956 233.371 92.3985 233.458 92.4327 233.534C92.4668 233.61 92.5294 233.669 92.6067 233.698C92.684 233.727 92.7696 233.724 92.8447 233.69L95.1402 232.656C95.2158 232.622 95.275 232.559 95.3052 232.481C95.3355 232.404 95.3344 232.317 95.3021 232.24C95.2668 232.165 95.2046 232.106 95.1281 232.076C95.0516 232.046 94.9665 232.046 94.8901 232.076Z" fill="#1F2F6D"/>
<path d="M102.395 245.355L100.364 246.842C100.298 246.891 100.253 246.964 100.239 247.046C100.226 247.128 100.244 247.212 100.29 247.28C100.34 247.348 100.414 247.393 100.496 247.407C100.579 247.421 100.663 247.402 100.732 247.355L102.763 245.868C102.795 245.843 102.823 245.813 102.844 245.777C102.865 245.742 102.879 245.703 102.886 245.662C102.892 245.622 102.89 245.58 102.88 245.54C102.87 245.5 102.853 245.462 102.829 245.429C102.805 245.396 102.774 245.368 102.739 245.347C102.704 245.325 102.666 245.311 102.625 245.305C102.585 245.299 102.544 245.301 102.504 245.31C102.465 245.32 102.428 245.338 102.395 245.362V245.355Z" fill="#1F2F6D"/>
<path d="M107.14 251.325L105.271 253.005C105.242 253.034 105.219 253.069 105.203 253.107C105.187 253.146 105.179 253.187 105.179 253.228C105.179 253.27 105.187 253.311 105.203 253.349C105.219 253.388 105.242 253.422 105.271 253.451C105.329 253.509 105.407 253.541 105.489 253.541C105.57 253.541 105.648 253.509 105.706 253.451L107.582 251.749C107.638 251.688 107.669 251.609 107.669 251.526C107.669 251.443 107.638 251.363 107.582 251.303C107.52 251.247 107.439 251.219 107.357 251.223C107.274 251.227 107.196 251.264 107.14 251.325Z" fill="#1F2F6D"/>
<path d="M112.475 256.76L110.79 258.648C110.734 258.71 110.705 258.792 110.709 258.876C110.714 258.96 110.75 259.038 110.812 259.094C110.873 259.15 110.954 259.18 111.037 259.176C111.12 259.171 111.198 259.134 111.253 259.072L112.938 257.184C112.994 257.123 113.025 257.043 113.025 256.961C113.025 256.878 112.994 256.798 112.938 256.737C112.907 256.707 112.87 256.683 112.829 256.667C112.789 256.651 112.745 256.644 112.702 256.646C112.658 256.648 112.615 256.66 112.576 256.679C112.537 256.699 112.503 256.726 112.475 256.76Z" fill="#1F2F6D"/>
<path d="M118.339 261.608L116.867 263.66C116.82 263.727 116.8 263.811 116.813 263.892C116.825 263.974 116.868 264.048 116.933 264.098C117.001 264.148 117.085 264.169 117.168 264.157C117.251 264.144 117.325 264.099 117.375 264.031L118.846 261.972C118.894 261.904 118.913 261.819 118.899 261.737C118.886 261.655 118.84 261.582 118.773 261.533C118.705 261.485 118.622 261.466 118.54 261.48C118.459 261.493 118.386 261.54 118.339 261.608Z" fill="#1F2F6D"/>
<path d="M131.825 269.146C131.787 269.129 131.747 269.12 131.705 269.119C131.664 269.118 131.623 269.125 131.585 269.14C131.546 269.156 131.511 269.178 131.482 269.208C131.452 269.237 131.429 269.271 131.413 269.31L130.39 271.63C130.373 271.667 130.363 271.708 130.362 271.749C130.36 271.79 130.367 271.832 130.381 271.87C130.396 271.909 130.417 271.945 130.446 271.975C130.474 272.005 130.507 272.029 130.545 272.046C130.62 272.079 130.705 272.081 130.782 272.052C130.859 272.023 130.921 271.965 130.957 271.89L131.979 269.563C131.997 269.525 132.006 269.485 132.008 269.443C132.009 269.402 132.003 269.361 131.988 269.322C131.974 269.283 131.952 269.248 131.924 269.218C131.896 269.187 131.862 269.163 131.825 269.146Z" fill="#1F2F6D"/>
<path d="M138.866 271.882C138.827 271.869 138.786 271.863 138.744 271.865C138.703 271.868 138.662 271.879 138.625 271.898C138.588 271.916 138.555 271.943 138.528 271.974C138.502 272.006 138.481 272.043 138.469 272.083L137.696 274.5C137.671 274.578 137.678 274.664 137.715 274.738C137.752 274.812 137.817 274.868 137.895 274.894C137.973 274.919 138.058 274.912 138.131 274.875C138.204 274.837 138.26 274.772 138.285 274.693L139.065 272.277C139.077 272.237 139.082 272.196 139.079 272.155C139.076 272.114 139.065 272.074 139.046 272.038C139.028 272.001 139.003 271.969 138.972 271.942C138.941 271.915 138.905 271.895 138.866 271.882Z" fill="#1F2F6D"/>
<path d="M146.15 273.823C146.11 273.814 146.068 273.814 146.028 273.821C145.988 273.829 145.949 273.845 145.915 273.868C145.881 273.89 145.851 273.92 145.829 273.954C145.806 273.989 145.79 274.027 145.782 274.068L145.26 276.551C145.25 276.591 145.248 276.633 145.255 276.674C145.262 276.715 145.277 276.753 145.299 276.788C145.321 276.823 145.349 276.853 145.383 276.876C145.417 276.899 145.455 276.915 145.495 276.923C145.576 276.941 145.661 276.926 145.731 276.882C145.801 276.837 145.851 276.767 145.87 276.685L146.393 274.195C146.408 274.113 146.391 274.028 146.346 273.959C146.301 273.89 146.23 273.841 146.15 273.823Z" fill="#1F2F6D"/>
<path d="M153.603 275.042C153.52 275.034 153.438 275.059 153.373 275.112C153.308 275.164 153.267 275.241 153.257 275.325L152.993 277.852C152.984 277.936 153.009 278.02 153.061 278.085C153.114 278.151 153.189 278.193 153.272 278.202C153.355 278.208 153.436 278.183 153.501 278.13C153.565 278.078 153.607 278.002 153.618 277.919L153.875 275.392C153.884 275.309 153.86 275.226 153.809 275.161C153.759 275.096 153.685 275.053 153.603 275.042Z" fill="#1F2F6D"/>
<path d="M168.664 275.05C168.624 275.053 168.584 275.065 168.549 275.084C168.513 275.104 168.481 275.13 168.456 275.162C168.431 275.194 168.412 275.231 168.401 275.27C168.39 275.31 168.387 275.351 168.392 275.392L168.649 277.919C168.659 278.003 168.7 278.079 168.765 278.132C168.83 278.185 168.912 278.21 168.995 278.202C169.036 278.197 169.075 278.185 169.111 278.164C169.147 278.144 169.178 278.117 169.204 278.085C169.229 278.052 169.248 278.015 169.259 277.975C169.269 277.935 169.272 277.894 169.267 277.852L169.01 275.325C168.999 275.242 168.957 275.168 168.892 275.116C168.827 275.065 168.746 275.041 168.664 275.05Z" fill="#1F2F6D"/>
<path d="M176.485 274.098C176.477 274.057 176.461 274.019 176.439 273.984C176.416 273.95 176.386 273.92 176.352 273.897C176.318 273.875 176.279 273.859 176.239 273.851C176.199 273.843 176.157 273.844 176.117 273.853C176.037 273.87 175.967 273.919 175.921 273.989C175.876 274.058 175.859 274.143 175.874 274.224L176.397 276.715C176.406 276.756 176.422 276.794 176.445 276.828C176.469 276.862 176.499 276.891 176.533 276.914C176.568 276.936 176.606 276.951 176.646 276.959C176.687 276.966 176.728 276.965 176.768 276.957C176.808 276.948 176.846 276.931 176.88 276.908C176.914 276.884 176.943 276.854 176.965 276.819C176.987 276.784 177.002 276.745 177.01 276.704C177.017 276.664 177.016 276.622 177.007 276.581L176.485 274.098Z" fill="#1F2F6D"/>
<path d="M183.791 272.083C183.766 272.004 183.711 271.939 183.637 271.901C183.564 271.864 183.479 271.857 183.401 271.883C183.323 271.908 183.258 271.964 183.221 272.038C183.184 272.112 183.177 272.198 183.203 272.277L183.983 274.7C183.995 274.739 184.015 274.776 184.041 274.807C184.068 274.838 184.1 274.864 184.136 274.882C184.173 274.901 184.212 274.912 184.253 274.916C184.293 274.919 184.334 274.914 184.372 274.901C184.451 274.874 184.516 274.817 184.553 274.741C184.59 274.666 184.597 274.579 184.571 274.5L183.791 272.083Z" fill="#1F2F6D"/>
<path d="M190.855 269.31C190.838 269.272 190.814 269.238 190.784 269.21C190.754 269.181 190.719 269.159 190.681 269.145C190.643 269.13 190.602 269.124 190.561 269.125C190.52 269.127 190.48 269.137 190.443 269.154C190.405 269.17 190.372 269.193 190.344 269.223C190.316 269.252 190.294 269.287 190.28 269.325C190.265 269.363 190.259 269.404 190.26 269.445C190.261 269.486 190.271 269.526 190.288 269.563L191.311 271.89C191.327 271.928 191.351 271.962 191.381 271.99C191.411 272.018 191.446 272.041 191.484 272.055C191.523 272.07 191.564 272.076 191.604 272.075C191.645 272.073 191.686 272.063 191.723 272.046C191.76 272.03 191.793 272.006 191.821 271.977C191.849 271.948 191.871 271.913 191.886 271.875C191.9 271.836 191.907 271.796 191.905 271.755C191.904 271.714 191.894 271.674 191.877 271.637L190.855 269.31Z" fill="#1F2F6D"/>
<path d="M203.929 261.608C203.905 261.574 203.874 261.546 203.839 261.524C203.805 261.503 203.766 261.489 203.725 261.483C203.685 261.476 203.644 261.478 203.604 261.488C203.565 261.498 203.527 261.516 203.495 261.541C203.428 261.59 203.384 261.663 203.37 261.745C203.356 261.827 203.375 261.911 203.421 261.979L204.893 264.039C204.945 264.095 205.016 264.129 205.093 264.136C205.169 264.143 205.245 264.122 205.307 264.077C205.369 264.031 205.412 263.965 205.43 263.889C205.447 263.814 205.436 263.735 205.4 263.667L203.929 261.608Z" fill="#1F2F6D"/>
<path d="M209.793 256.767C209.765 256.738 209.731 256.715 209.694 256.699C209.656 256.683 209.616 256.674 209.576 256.674C209.535 256.674 209.495 256.683 209.458 256.699C209.421 256.715 209.387 256.738 209.359 256.767C209.33 256.796 209.306 256.83 209.291 256.868C209.275 256.905 209.267 256.946 209.267 256.987C209.267 257.028 209.275 257.068 209.291 257.106C209.306 257.144 209.33 257.178 209.359 257.206L211.044 259.102C211.104 259.158 211.182 259.19 211.264 259.19C211.346 259.19 211.425 259.158 211.485 259.102C211.543 259.042 211.575 258.962 211.575 258.879C211.575 258.796 211.543 258.716 211.485 258.656L209.793 256.767Z" fill="#1F2F6D"/>
<path d="M215.127 251.325C215.068 251.267 214.989 251.234 214.906 251.234C214.824 251.234 214.745 251.267 214.685 251.325C214.656 251.353 214.633 251.388 214.617 251.425C214.601 251.463 214.593 251.503 214.593 251.544C214.593 251.585 214.601 251.626 214.617 251.663C214.633 251.701 214.656 251.735 214.685 251.764L216.554 253.474C216.582 253.503 216.616 253.527 216.653 253.543C216.691 253.559 216.731 253.567 216.771 253.567C216.812 253.567 216.852 253.559 216.889 253.543C216.926 253.527 216.96 253.503 216.988 253.474C217.017 253.445 217.041 253.411 217.057 253.373C217.072 253.336 217.081 253.295 217.081 253.254C217.081 253.213 217.072 253.173 217.057 253.135C217.041 253.098 217.017 253.063 216.988 253.035L215.127 251.325Z" fill="#1F2F6D"/>
<path d="M219.872 245.362C219.806 245.313 219.723 245.292 219.642 245.305C219.56 245.317 219.487 245.362 219.438 245.429C219.389 245.496 219.369 245.58 219.381 245.662C219.394 245.745 219.438 245.819 219.504 245.868L221.543 247.355C221.575 247.382 221.613 247.402 221.654 247.414C221.694 247.426 221.737 247.429 221.779 247.424C221.821 247.418 221.861 247.404 221.898 247.382C221.934 247.361 221.965 247.331 221.99 247.297C222.015 247.262 222.032 247.222 222.041 247.181C222.05 247.139 222.051 247.096 222.043 247.054C222.034 247.012 222.018 246.972 221.994 246.937C221.97 246.902 221.939 246.872 221.903 246.849L219.872 245.362Z" fill="#1F2F6D"/>
<path d="M229.68 233.117L227.385 232.084C227.31 232.06 227.23 232.064 227.159 232.096C227.087 232.128 227.03 232.185 226.998 232.257C226.967 232.329 226.962 232.41 226.986 232.485C227.009 232.56 227.06 232.624 227.127 232.664L229.423 233.697C229.497 233.722 229.577 233.717 229.648 233.685C229.72 233.653 229.777 233.596 229.809 233.524C229.841 233.452 229.845 233.371 229.821 233.296C229.798 233.221 229.747 233.157 229.68 233.117Z" fill="#1F2F6D"/>
<path d="M232.461 225.712L230.063 224.924C230.024 224.911 229.983 224.906 229.943 224.91C229.902 224.913 229.863 224.924 229.827 224.943C229.79 224.961 229.758 224.987 229.732 225.018C229.705 225.05 229.685 225.086 229.673 225.125C229.647 225.205 229.653 225.292 229.691 225.367C229.728 225.442 229.793 225.499 229.871 225.526L232.263 226.314C232.342 226.338 232.427 226.331 232.501 226.294C232.575 226.256 232.632 226.192 232.66 226.114C232.686 226.034 232.679 225.947 232.642 225.872C232.605 225.797 232.54 225.739 232.461 225.712Z" fill="#1F2F6D"/>
<path d="M234.455 218.062L231.998 217.534C231.958 217.524 231.916 217.522 231.875 217.528C231.834 217.534 231.794 217.549 231.759 217.571C231.724 217.593 231.693 217.622 231.669 217.656C231.645 217.69 231.628 217.729 231.619 217.77C231.611 217.811 231.61 217.853 231.618 217.894C231.625 217.935 231.641 217.975 231.664 218.009C231.687 218.044 231.716 218.074 231.751 218.097C231.786 218.12 231.824 218.136 231.865 218.144L234.323 218.679C234.363 218.688 234.404 218.689 234.445 218.681C234.485 218.674 234.523 218.658 234.558 218.636C234.592 218.614 234.622 218.584 234.646 218.55C234.669 218.516 234.686 218.478 234.694 218.437C234.703 218.397 234.704 218.355 234.696 218.314C234.689 218.273 234.674 218.235 234.652 218.2C234.629 218.165 234.601 218.135 234.567 218.111C234.533 218.087 234.495 218.071 234.455 218.062Z" fill="#1F2F6D"/>
<path d="M235.647 210.225L233.146 209.958C233.064 209.949 232.982 209.973 232.917 210.026C232.853 210.078 232.812 210.154 232.804 210.237C232.795 210.319 232.819 210.402 232.871 210.467C232.922 210.532 232.997 210.573 233.079 210.582L235.588 210.85C235.629 210.854 235.67 210.85 235.709 210.838C235.748 210.826 235.784 210.806 235.815 210.78C235.847 210.753 235.873 210.721 235.892 210.685C235.911 210.648 235.923 210.608 235.927 210.567C235.931 210.526 235.926 210.485 235.915 210.446C235.903 210.406 235.883 210.37 235.857 210.338C235.831 210.306 235.799 210.28 235.763 210.261C235.727 210.241 235.688 210.229 235.647 210.225Z" fill="#1F2F6D"/>
<path d="M232.807 195.014C232.811 195.055 232.823 195.095 232.842 195.132C232.861 195.168 232.887 195.2 232.918 195.227C232.95 195.253 232.986 195.273 233.025 195.285C233.064 195.297 233.105 195.301 233.146 195.297L235.647 195.029C235.688 195.026 235.728 195.015 235.765 194.996C235.801 194.977 235.834 194.951 235.86 194.919C235.886 194.887 235.906 194.85 235.917 194.81C235.929 194.77 235.932 194.728 235.927 194.687C235.923 194.646 235.911 194.606 235.892 194.569C235.873 194.533 235.847 194.501 235.816 194.474C235.784 194.448 235.748 194.428 235.709 194.416C235.67 194.404 235.629 194.4 235.588 194.404L233.087 194.665C233.004 194.674 232.928 194.716 232.876 194.781C232.824 194.847 232.799 194.93 232.807 195.014Z" fill="#1F2F6D"/>
<path d="M231.63 187.483C231.638 187.523 231.653 187.562 231.676 187.597C231.699 187.631 231.729 187.66 231.763 187.683C231.797 187.706 231.835 187.722 231.876 187.73C231.916 187.737 231.957 187.737 231.998 187.728L234.455 187.2C234.536 187.183 234.607 187.135 234.653 187.065C234.698 186.995 234.714 186.91 234.698 186.828C234.681 186.747 234.633 186.675 234.564 186.629C234.495 186.583 234.411 186.566 234.33 186.583L231.865 187.111C231.785 187.129 231.715 187.178 231.671 187.248C231.627 187.317 231.612 187.402 231.63 187.483Z" fill="#1F2F6D"/>
<path d="M229.673 180.144C229.685 180.183 229.705 180.22 229.732 180.251C229.758 180.282 229.79 180.308 229.826 180.327C229.863 180.345 229.902 180.356 229.943 180.36C229.983 180.363 230.024 180.358 230.063 180.345L232.461 179.564C232.529 179.531 232.583 179.473 232.613 179.403C232.642 179.332 232.646 179.253 232.623 179.18C232.599 179.107 232.551 179.045 232.486 179.005C232.422 178.965 232.345 178.95 232.27 178.962L229.871 179.75C229.833 179.763 229.797 179.783 229.766 179.81C229.735 179.837 229.71 179.869 229.691 179.906C229.673 179.942 229.662 179.982 229.658 180.023C229.655 180.064 229.66 180.105 229.673 180.144Z" fill="#1F2F6D"/>
<path d="M227.385 173.163L229.68 172.137C229.724 172.125 229.765 172.104 229.8 172.074C229.835 172.045 229.863 172.008 229.883 171.967C229.902 171.925 229.913 171.88 229.914 171.834C229.914 171.788 229.906 171.743 229.887 171.701C229.869 171.659 229.842 171.621 229.808 171.59C229.775 171.56 229.735 171.537 229.691 171.523C229.648 171.51 229.602 171.506 229.557 171.511C229.512 171.517 229.469 171.533 229.43 171.557L227.127 172.591C227.052 172.625 226.994 172.688 226.965 172.766C226.936 172.844 226.939 172.931 226.973 173.007C227.007 173.083 227.069 173.142 227.147 173.171C227.224 173.2 227.31 173.198 227.385 173.163Z" fill="#1F2F6D"/>
<path d="M221.543 157.892L219.512 159.379C219.445 159.427 219.399 159.501 219.385 159.583C219.371 159.665 219.391 159.75 219.438 159.818C219.486 159.886 219.559 159.932 219.64 159.946C219.722 159.96 219.805 159.94 219.872 159.892L221.91 158.405C221.977 158.356 222.021 158.282 222.033 158.199C222.046 158.117 222.025 158.033 221.977 157.966C221.928 157.899 221.855 157.855 221.773 157.842C221.692 157.829 221.609 157.85 221.543 157.899V157.892Z" fill="#1F2F6D"/>
<path d="M216.584 151.751L214.715 153.454C214.684 153.481 214.66 153.515 214.642 153.553C214.625 153.59 214.614 153.631 214.612 153.672C214.61 153.713 214.616 153.755 214.63 153.794C214.644 153.833 214.665 153.869 214.693 153.9C214.72 153.93 214.754 153.955 214.791 153.973C214.828 153.991 214.868 154.001 214.909 154.003C214.95 154.005 214.991 153.999 215.03 153.985C215.068 153.971 215.104 153.95 215.134 153.922L217.003 152.219C217.032 152.191 217.055 152.157 217.071 152.119C217.087 152.082 217.095 152.041 217.095 152C217.095 151.959 217.087 151.919 217.071 151.881C217.055 151.843 217.032 151.809 217.003 151.781C216.949 151.725 216.876 151.691 216.799 151.685C216.722 151.68 216.645 151.703 216.584 151.751Z" fill="#1F2F6D"/>
<path d="M211.021 146.175L209.329 148.063C209.3 148.092 209.276 148.127 209.26 148.165C209.245 148.204 209.236 148.245 209.236 148.286C209.236 148.328 209.245 148.369 209.26 148.407C209.276 148.446 209.3 148.48 209.329 148.509C209.389 148.566 209.468 148.597 209.55 148.597C209.632 148.597 209.711 148.566 209.771 148.509L211.455 146.621C211.511 146.559 211.54 146.477 211.536 146.393C211.532 146.31 211.495 146.231 211.433 146.175C211.372 146.119 211.291 146.089 211.208 146.094C211.125 146.098 211.048 146.135 210.992 146.197L211.021 146.175Z" fill="#1F2F6D"/>
<path d="M204.915 141.216L203.443 143.268C203.419 143.301 203.402 143.339 203.392 143.379C203.382 143.419 203.38 143.46 203.386 143.501C203.393 143.542 203.407 143.581 203.428 143.616C203.449 143.651 203.477 143.682 203.509 143.706C203.542 143.731 203.58 143.748 203.619 143.758C203.659 143.768 203.7 143.77 203.74 143.764C203.78 143.758 203.819 143.743 203.854 143.722C203.889 143.701 203.919 143.673 203.943 143.64L205.415 141.588C205.461 141.519 205.48 141.435 205.466 141.353C205.452 141.271 205.408 141.198 205.341 141.149C205.276 141.102 205.194 141.082 205.115 141.095C205.035 141.107 204.963 141.151 204.915 141.216Z" fill="#1F2F6D"/>
<path d="M191.73 133.201C191.693 133.184 191.653 133.174 191.612 133.173C191.571 133.171 191.53 133.178 191.492 133.192C191.453 133.207 191.418 133.229 191.389 133.257C191.359 133.286 191.335 133.32 191.318 133.357L190.288 135.684C190.264 135.723 190.249 135.767 190.243 135.813C190.237 135.858 190.241 135.905 190.255 135.948C190.268 135.992 190.291 136.033 190.321 136.067C190.351 136.101 190.389 136.128 190.43 136.146C190.472 136.165 190.517 136.174 190.562 136.173C190.608 136.172 190.652 136.162 190.693 136.142C190.734 136.122 190.771 136.093 190.8 136.058C190.829 136.023 190.85 135.982 190.862 135.937L191.885 133.618C191.902 133.58 191.911 133.539 191.913 133.498C191.915 133.457 191.908 133.416 191.894 133.377C191.879 133.338 191.857 133.303 191.829 133.272C191.801 133.242 191.767 133.218 191.73 133.201Z" fill="#1F2F6D"/>
<path d="M184.38 130.331C184.341 130.319 184.299 130.314 184.259 130.318C184.218 130.321 184.178 130.333 184.142 130.353C184.105 130.372 184.073 130.398 184.047 130.431C184.021 130.463 184.002 130.5 183.99 130.539L183.21 132.956C183.196 132.995 183.191 133.036 183.193 133.077C183.196 133.119 183.207 133.159 183.225 133.196C183.244 133.233 183.27 133.265 183.301 133.292C183.333 133.318 183.369 133.338 183.409 133.35C183.447 133.362 183.488 133.367 183.529 133.364C183.569 133.361 183.609 133.35 183.645 133.331C183.681 133.312 183.713 133.287 183.74 133.255C183.766 133.224 183.786 133.188 183.799 133.149L184.578 130.733C184.602 130.653 184.595 130.567 184.558 130.492C184.521 130.417 184.457 130.36 184.38 130.331Z" fill="#1F2F6D"/>
<path d="M176.772 128.294C176.692 128.277 176.608 128.292 176.539 128.336C176.47 128.381 176.422 128.451 176.404 128.532L175.882 131.023C175.864 131.104 175.879 131.188 175.923 131.258C175.967 131.328 176.037 131.377 176.117 131.395C176.199 131.412 176.285 131.396 176.355 131.35C176.425 131.304 176.475 131.232 176.492 131.149L177.015 128.666C177.023 128.626 177.024 128.584 177.016 128.543C177.009 128.502 176.993 128.463 176.97 128.429C176.948 128.394 176.919 128.364 176.885 128.341C176.85 128.318 176.812 128.302 176.772 128.294Z" fill="#1F2F6D"/>
<path d="M169.003 127.045C168.92 127.037 168.837 127.062 168.772 127.115C168.707 127.167 168.666 127.244 168.657 127.328L168.392 129.855C168.385 129.939 168.411 130.021 168.463 130.086C168.515 130.151 168.589 130.194 168.671 130.205C168.712 130.209 168.753 130.205 168.792 130.193C168.831 130.181 168.867 130.161 168.899 130.135C168.93 130.109 168.956 130.076 168.975 130.04C168.994 130.003 169.006 129.963 169.01 129.922L169.275 127.394C169.281 127.353 169.279 127.311 169.268 127.271C169.258 127.231 169.239 127.193 169.214 127.16C169.188 127.127 169.156 127.1 169.12 127.08C169.084 127.061 169.044 127.049 169.003 127.045Z" fill="#1F2F6D"/>
<path d="M233.668 204.553C233.289 204.333 232.983 204.005 232.789 203.609C232.595 203.214 232.521 202.769 232.577 202.331C232.634 201.893 232.817 201.482 233.105 201.15C233.392 200.817 233.771 200.579 234.193 200.464C234.615 200.35 235.061 200.364 235.475 200.506C235.889 200.647 236.251 200.91 236.517 201.26C236.783 201.61 236.94 202.033 236.969 202.473C236.997 202.914 236.896 203.353 236.677 203.735C236.385 204.246 235.904 204.619 235.34 204.772C234.776 204.925 234.174 204.846 233.668 204.553Z" fill="#1F2F6D"/>
<path d="M224.905 167.654C224.468 167.654 224.042 167.523 223.679 167.278C223.316 167.033 223.033 166.684 222.866 166.277C222.699 165.869 222.655 165.421 222.74 164.988C222.825 164.556 223.036 164.158 223.344 163.846C223.653 163.534 224.046 163.322 224.474 163.236C224.903 163.15 225.346 163.194 225.75 163.363C226.153 163.531 226.498 163.817 226.74 164.184C226.983 164.551 227.112 164.982 227.112 165.423C227.112 166.015 226.88 166.582 226.466 167C226.052 167.419 225.49 167.654 224.905 167.654Z" fill="#1F2F6D"/>
<path d="M199.028 140.116C198.65 140.336 198.216 140.438 197.781 140.409C197.345 140.379 196.928 140.22 196.582 139.952C196.236 139.683 195.976 139.317 195.836 138.899C195.696 138.481 195.682 138.031 195.795 137.605C195.908 137.179 196.143 136.797 196.471 136.506C196.8 136.215 197.206 136.029 197.639 135.972C198.071 135.914 198.511 135.988 198.903 136.183C199.294 136.378 199.619 136.686 199.838 137.067C199.983 137.321 200.077 137.601 200.115 137.892C200.153 138.183 200.134 138.478 200.058 138.761C199.983 139.044 199.854 139.31 199.677 139.542C199.5 139.774 199.28 139.969 199.028 140.116Z" fill="#1F2F6D"/>
<path d="M163.05 129.335C162.832 129.717 162.506 130.025 162.115 130.22C161.723 130.415 161.284 130.488 160.851 130.431C160.418 130.373 160.012 130.187 159.684 129.896C159.356 129.606 159.12 129.223 159.007 128.797C158.894 128.371 158.908 127.921 159.048 127.503C159.189 127.086 159.448 126.719 159.794 126.451C160.14 126.182 160.557 126.023 160.993 125.994C161.428 125.964 161.863 126.066 162.241 126.287C162.492 126.433 162.713 126.628 162.889 126.86C163.066 127.093 163.196 127.358 163.271 127.641C163.346 127.924 163.365 128.22 163.327 128.51C163.289 128.801 163.195 129.081 163.05 129.335Z" fill="#1F2F6D"/>
<path d="M126.528 138.19C126.528 138.631 126.398 139.062 126.156 139.429C125.913 139.796 125.568 140.082 125.165 140.251C124.762 140.419 124.318 140.464 123.89 140.377C123.462 140.291 123.068 140.079 122.76 139.767C122.451 139.455 122.241 139.058 122.155 138.625C122.07 138.192 122.114 137.744 122.281 137.336C122.448 136.929 122.731 136.58 123.094 136.335C123.457 136.09 123.884 135.959 124.32 135.959C124.906 135.959 125.467 136.194 125.881 136.613C126.295 137.031 126.528 137.598 126.528 138.19Z" fill="#1F2F6D"/>
<path d="M99.2826 164.308C99.5005 164.69 99.6014 165.129 99.5725 165.569C99.5437 166.009 99.3863 166.431 99.1204 166.781C98.8545 167.13 98.492 167.393 98.0786 167.534C97.6653 167.676 97.2197 167.69 96.7981 167.576C96.3766 167.462 95.998 167.224 95.7103 166.892C95.4226 166.561 95.2387 166.15 95.1817 165.713C95.1248 165.276 95.1974 164.831 95.3904 164.436C95.5834 164.04 95.8881 163.711 96.266 163.49C96.5172 163.344 96.7945 163.249 97.0821 163.21C97.3697 163.172 97.6619 163.192 97.9421 163.268C98.2222 163.344 98.4848 163.475 98.7148 163.653C98.9449 163.832 99.1378 164.054 99.2826 164.308Z" fill="#1F2F6D"/>
<path d="M88.6068 200.694C88.9844 200.915 89.2887 201.245 89.481 201.641C89.6733 202.037 89.7451 202.482 89.6873 202.919C89.6295 203.356 89.4447 203.766 89.1562 204.097C88.8677 204.429 88.4885 204.666 88.0666 204.779C87.6447 204.892 87.199 204.877 86.7859 204.734C86.3728 204.592 86.0108 204.328 85.7457 203.978C85.4806 203.627 85.3244 203.205 85.2967 202.765C85.269 202.325 85.3711 201.886 85.5902 201.504C85.8839 200.993 86.3667 200.62 86.9324 200.468C87.4981 200.316 88.1004 200.397 88.6068 200.694Z" fill="#1F2F6D"/>
<path d="M97.3696 237.593C97.8062 237.593 98.2329 237.724 98.5959 237.969C98.9589 238.214 99.2418 238.562 99.4089 238.97C99.5759 239.377 99.6196 239.826 99.5345 240.258C99.4493 240.691 99.2391 241.088 98.9304 241.4C98.6217 241.712 98.2284 241.925 97.8002 242.011C97.3721 242.097 96.9283 242.053 96.5249 241.884C96.1216 241.715 95.7769 241.429 95.5343 241.062C95.2918 240.696 95.1624 240.264 95.1624 239.823C95.1624 239.232 95.3949 238.664 95.8088 238.246C96.2228 237.828 96.7842 237.593 97.3696 237.593Z" fill="#1F2F6D"/>
<path d="M123.246 265.124C123.624 264.904 124.058 264.802 124.494 264.831C124.929 264.86 125.347 265.019 125.693 265.288C126.039 265.557 126.298 265.923 126.438 266.341C126.578 266.758 126.593 267.209 126.48 267.635C126.367 268.061 126.131 268.443 125.803 268.734C125.475 269.025 125.069 269.21 124.636 269.268C124.203 269.326 123.763 269.252 123.372 269.057C122.98 268.862 122.655 268.554 122.437 268.172C122.292 267.918 122.197 267.638 122.159 267.348C122.122 267.057 122.141 266.762 122.216 266.479C122.291 266.196 122.421 265.93 122.598 265.698C122.774 265.465 122.995 265.27 123.246 265.124Z" fill="#1F2F6D"/>
<path d="M159.224 275.912C159.443 275.53 159.768 275.222 160.16 275.027C160.551 274.832 160.991 274.759 161.424 274.816C161.856 274.874 162.263 275.06 162.591 275.351C162.919 275.641 163.154 276.024 163.268 276.45C163.381 276.876 163.366 277.326 163.226 277.744C163.086 278.161 162.827 278.528 162.48 278.797C162.134 279.065 161.717 279.224 161.282 279.253C160.846 279.283 160.412 279.181 160.034 278.96C159.782 278.814 159.562 278.619 159.385 278.387C159.209 278.154 159.079 277.889 159.004 277.606C158.929 277.323 158.909 277.027 158.947 276.737C158.985 276.446 159.079 276.166 159.224 275.912Z" fill="#1F2F6D"/>
<path d="M195.747 267.057C195.747 266.616 195.877 266.185 196.119 265.818C196.362 265.451 196.706 265.165 197.11 264.996C197.513 264.828 197.957 264.783 198.385 264.87C198.813 264.956 199.206 265.168 199.515 265.48C199.824 265.792 200.034 266.189 200.119 266.622C200.204 267.055 200.161 267.503 199.994 267.911C199.827 268.318 199.544 268.667 199.181 268.912C198.818 269.157 198.391 269.288 197.954 269.288C197.369 269.288 196.807 269.053 196.394 268.634C195.98 268.216 195.747 267.649 195.747 267.057Z" fill="#1F2F6D"/>
<path d="M222.992 240.939C222.774 240.557 222.673 240.118 222.702 239.678C222.731 239.238 222.888 238.816 223.154 238.466C223.42 238.117 223.783 237.854 224.196 237.713C224.609 237.571 225.055 237.557 225.476 237.671C225.898 237.785 226.277 238.023 226.564 238.355C226.852 238.686 227.036 239.097 227.093 239.534C227.15 239.971 227.077 240.416 226.884 240.811C226.691 241.207 226.387 241.536 226.009 241.757C225.757 241.903 225.48 241.998 225.193 242.037C224.905 242.075 224.613 242.055 224.333 241.979C224.052 241.903 223.79 241.772 223.56 241.594C223.33 241.415 223.137 241.193 222.992 240.939Z" fill="#1F2F6D"/>
<path d="M325.792 320.32V259.89H280.167V320.32H325.792Z" fill="#A1B3FF" stroke="#6579CF" stroke-miterlimit="10"/>
<path d="M323.974 261.727H281.978V318.484H323.974V261.727Z" fill="white" stroke="#7A90EB" stroke-miterlimit="10"/>
<path d="M292.388 269.585H284.604V277.451H292.388V269.585Z" stroke="#1F2F6D" stroke-linecap="round" stroke-linejoin="round"/>
<path d="M321.355 269.488H295.089V271.451H321.355V269.488Z" fill="#DEE1EF"/>
<path d="M318.074 272.537H295.089V274.499H318.074V272.537Z" fill="#DEE1EF"/>
<path d="M314.799 275.592H295.089V277.555H314.799V275.592Z" fill="#DEE1EF"/>
<path d="M288.452 275.979C288.323 275.979 288.196 275.95 288.08 275.893C287.964 275.836 287.863 275.754 287.783 275.652L285.892 273.236C285.822 273.147 285.771 273.045 285.74 272.936C285.709 272.827 285.7 272.713 285.713 272.6C285.726 272.488 285.761 272.379 285.816 272.28C285.87 272.181 285.944 272.094 286.032 272.024C286.119 271.953 286.22 271.901 286.328 271.87C286.436 271.839 286.549 271.83 286.66 271.843C286.771 271.856 286.879 271.892 286.977 271.947C287.075 272.002 287.161 272.076 287.231 272.165L288.349 273.6L292.028 267.332C292.085 267.235 292.16 267.149 292.25 267.081C292.34 267.013 292.442 266.963 292.55 266.935C292.659 266.907 292.772 266.9 292.883 266.916C292.994 266.932 293.101 266.97 293.198 267.027C293.294 267.085 293.379 267.161 293.446 267.252C293.514 267.343 293.563 267.446 293.591 267.555C293.619 267.665 293.625 267.779 293.61 267.892C293.594 268.004 293.556 268.112 293.499 268.21L289.188 275.555C289.117 275.675 289.018 275.776 288.9 275.85C288.783 275.924 288.649 275.968 288.511 275.979H288.452Z" fill="#4DC7B8"/>
<path d="M292.388 281.83H284.604V289.696H292.388V281.83Z" stroke="#1F2F6D" stroke-linecap="round" stroke-linejoin="round"/>
<path d="M321.355 281.726H295.089V283.689H321.355V281.726Z" fill="#DEE1EF"/>
<path d="M318.074 284.782H295.089V286.745H318.074V284.782Z" fill="#DEE1EF"/>
<path d="M314.799 287.837H295.089V289.8H314.799V287.837Z" fill="#DEE1EF"/>
<path d="M288.452 288.224C288.323 288.224 288.196 288.195 288.08 288.138C287.964 288.081 287.863 287.999 287.783 287.897L285.892 285.481C285.822 285.392 285.771 285.29 285.74 285.181C285.709 285.072 285.7 284.958 285.713 284.845C285.726 284.733 285.761 284.624 285.816 284.525C285.87 284.426 285.944 284.339 286.032 284.269C286.119 284.198 286.22 284.146 286.328 284.115C286.436 284.084 286.549 284.075 286.66 284.088C286.771 284.102 286.879 284.137 286.977 284.192C287.075 284.247 287.161 284.321 287.231 284.41L288.349 285.838L292.028 279.577C292.143 279.38 292.331 279.237 292.55 279.18C292.77 279.123 293.003 279.156 293.198 279.273C293.393 279.389 293.534 279.579 293.591 279.801C293.647 280.022 293.615 280.258 293.499 280.455L289.188 287.8C289.117 287.92 289.018 288.022 288.9 288.095C288.783 288.169 288.649 288.213 288.511 288.224H288.452Z" fill="#4DC7B8"/>
<path d="M292.388 294.075H284.604V301.941H292.388V294.075Z" stroke="#1F2F6D" stroke-linecap="round" stroke-linejoin="round"/>
<path d="M321.355 293.971H295.089V295.934H321.355V293.971Z" fill="#DEE1EF"/>
<path d="M318.074 297.027H295.089V298.99H318.074V297.027Z" fill="#DEE1EF"/>
<path d="M314.799 300.083H295.089V302.045H314.799V300.083Z" fill="#DEE1EF"/>
<path d="M288.452 300.469C288.323 300.469 288.196 300.44 288.08 300.383C287.964 300.327 287.863 300.244 287.783 300.142L285.892 297.726C285.822 297.637 285.771 297.535 285.74 297.426C285.709 297.317 285.7 297.203 285.713 297.091C285.726 296.978 285.761 296.869 285.816 296.77C285.87 296.671 285.944 296.584 286.032 296.514C286.119 296.444 286.22 296.391 286.328 296.361C286.436 296.33 286.549 296.32 286.66 296.334C286.771 296.347 286.879 296.382 286.977 296.437C287.075 296.492 287.161 296.566 287.231 296.655L288.349 298.083L292.028 291.823C292.085 291.725 292.16 291.64 292.25 291.571C292.34 291.503 292.442 291.454 292.55 291.425C292.659 291.397 292.772 291.391 292.883 291.406C292.994 291.422 293.101 291.46 293.198 291.518C293.294 291.575 293.379 291.652 293.446 291.742C293.514 291.833 293.563 291.936 293.591 292.046C293.619 292.155 293.625 292.27 293.61 292.382C293.594 292.494 293.556 292.602 293.499 292.7L289.188 300.045C289.117 300.165 289.018 300.267 288.9 300.34C288.783 300.414 288.649 300.458 288.511 300.469H288.452Z" fill="#4DC7B8"/>
<path d="M292.388 306.32H284.604V314.186H292.388V306.32Z" stroke="#1F2F6D" stroke-linecap="round" stroke-linejoin="round"/>
<path d="M321.355 306.216H295.089V308.179H321.355V306.216Z" fill="#DEE1EF"/>
<path d="M318.074 309.272H295.089V311.235H318.074V309.272Z" fill="#DEE1EF"/>
<path d="M314.799 312.328H295.089V314.29H314.799V312.328Z" fill="#DEE1EF"/>
<path d="M288.452 312.714C288.323 312.714 288.196 312.685 288.08 312.628C287.964 312.572 287.863 312.489 287.783 312.387L285.892 309.971C285.822 309.882 285.771 309.78 285.74 309.671C285.709 309.562 285.7 309.448 285.713 309.336C285.726 309.223 285.761 309.114 285.816 309.015C285.87 308.916 285.944 308.829 286.032 308.759C286.119 308.689 286.22 308.637 286.328 308.606C286.436 308.575 286.549 308.566 286.66 308.579C286.771 308.592 286.879 308.627 286.977 308.682C287.075 308.737 287.161 308.811 287.231 308.9L288.349 310.328L292.028 304.068C292.143 303.87 292.331 303.728 292.55 303.67C292.77 303.613 293.003 303.646 293.198 303.763C293.393 303.879 293.534 304.069 293.591 304.291C293.647 304.512 293.615 304.748 293.499 304.945L289.188 312.291C289.117 312.411 289.018 312.512 288.9 312.585C288.783 312.659 288.649 312.703 288.511 312.714H288.452Z" fill="#4DC7B8"/>
<path d="M298.87 253.34V259.139C298.87 259.37 298.961 259.591 299.123 259.754C299.284 259.918 299.503 260.009 299.731 260.009H306.221C306.45 260.009 306.669 259.918 306.832 259.755C306.994 259.592 307.087 259.371 307.089 259.139V253.34C307.089 253.108 306.997 252.884 306.834 252.72C306.672 252.555 306.451 252.463 306.221 252.463H299.731C299.618 252.463 299.505 252.486 299.4 252.53C299.295 252.574 299.2 252.639 299.12 252.72C299.04 252.802 298.977 252.899 298.934 253.005C298.891 253.111 298.869 253.225 298.87 253.34ZM303.822 255.177H302.137C302.023 255.177 301.911 255.154 301.806 255.11C301.701 255.065 301.606 255.001 301.526 254.919C301.446 254.838 301.383 254.741 301.34 254.634C301.297 254.528 301.275 254.414 301.276 254.299C301.275 254.184 301.297 254.071 301.34 253.964C301.383 253.858 301.446 253.761 301.526 253.679C301.606 253.598 301.701 253.533 301.806 253.489C301.911 253.445 302.023 253.422 302.137 253.422H303.822C304.051 253.424 304.27 253.517 304.431 253.682C304.592 253.846 304.683 254.068 304.683 254.299C304.683 254.531 304.592 254.753 304.431 254.917C304.27 255.081 304.051 255.175 303.822 255.177Z" fill="#1F2F6D"/>
<path d="M311.04 256.559H294.912C294.132 256.559 293.5 257.198 293.5 257.987V262.039C293.5 262.827 294.132 263.466 294.912 263.466H311.04C311.82 263.466 312.453 262.827 312.453 262.039V257.987C312.453 257.198 311.82 256.559 311.04 256.559Z" fill="#1F2F6D"/>
<path d="M241.393 320.937C250.812 320.937 258.448 313.221 258.448 303.703C258.448 294.185 250.812 286.469 241.393 286.469C231.974 286.469 224.338 294.185 224.338 303.703C224.338 313.221 231.974 320.937 241.393 320.937Z" fill="#4DC7B8" stroke="#31897C" stroke-miterlimit="10"/>
<path d="M236.015 303.131C236.014 302.261 236.219 301.404 236.614 300.631C237.008 299.859 237.581 299.193 238.283 298.69C238.985 298.187 239.796 297.862 240.648 297.741C241.5 297.621 242.369 297.709 243.18 297.998C243.992 298.287 244.723 298.768 245.312 299.402C245.902 300.035 246.332 300.803 246.567 301.639C246.802 302.476 246.835 303.357 246.663 304.209C246.491 305.061 246.12 305.859 245.58 306.536C244.647 307.675 244.128 309.102 244.108 310.58V310.684H238.612V310.58C238.618 309.125 238.121 307.712 237.207 306.588C236.425 305.61 236.004 304.388 236.015 303.131Z" fill="#FCE001"/>
<path d="M241.629 310.677H241.945V306.313C241.945 306.166 241.988 306.022 242.069 305.9C242.15 305.777 242.265 305.682 242.399 305.626C242.534 305.57 242.682 305.555 242.824 305.583C242.967 305.612 243.098 305.683 243.201 305.787C243.304 305.891 243.374 306.023 243.402 306.168C243.431 306.312 243.416 306.461 243.361 306.597C243.305 306.733 243.211 306.849 243.09 306.931C242.969 307.013 242.826 307.056 242.681 307.056H242.328V307.376H242.681C242.889 307.376 243.092 307.314 243.265 307.197C243.438 307.08 243.573 306.914 243.653 306.72C243.732 306.525 243.753 306.312 243.713 306.105C243.672 305.899 243.572 305.71 243.425 305.561C243.278 305.412 243.09 305.311 242.886 305.27C242.682 305.229 242.47 305.25 242.278 305.33C242.086 305.411 241.922 305.547 241.806 305.722C241.69 305.897 241.629 306.102 241.629 306.313V310.677Z" fill="#FCA701"/>
<path d="M240.834 310.677H241.143V306.313C241.143 306.102 241.081 305.896 240.965 305.721C240.85 305.546 240.685 305.41 240.492 305.33C240.299 305.249 240.087 305.229 239.883 305.27C239.679 305.312 239.491 305.414 239.345 305.564C239.198 305.713 239.098 305.903 239.058 306.11C239.019 306.317 239.041 306.531 239.121 306.725C239.202 306.919 239.338 307.084 239.512 307.2C239.686 307.316 239.89 307.377 240.099 307.376H240.452V307.056H240.099C239.953 307.056 239.811 307.013 239.69 306.931C239.569 306.849 239.474 306.733 239.419 306.597C239.363 306.461 239.349 306.312 239.377 306.168C239.405 306.023 239.475 305.891 239.578 305.787C239.681 305.683 239.812 305.612 239.955 305.583C240.098 305.555 240.246 305.57 240.38 305.626C240.515 305.682 240.629 305.777 240.71 305.9C240.791 306.022 240.834 306.166 240.834 306.313V310.677Z" fill="#FCA701"/>
<path d="M242.828 314.387H239.973C239.63 314.387 239.301 314.249 239.058 314.004C238.815 313.759 238.678 313.426 238.678 313.079V310.662H244.13V313.079C244.13 313.251 244.097 313.422 244.031 313.581C243.966 313.74 243.87 313.885 243.749 314.007C243.627 314.128 243.484 314.224 243.326 314.29C243.168 314.355 242.999 314.388 242.828 314.387Z" fill="#1F2F6D"/>
<path d="M242.409 315.495H240.356C240.204 315.495 240.058 315.434 239.95 315.325C239.843 315.217 239.782 315.069 239.782 314.915V314.343H242.946V314.945C242.939 315.087 242.88 315.222 242.781 315.324C242.682 315.425 242.55 315.486 242.409 315.495Z" fill="#1F2F6D"/>
<path d="M248.066 305.77L251.76 307.725" stroke="#1F2F6D" stroke-linecap="round" stroke-linejoin="round"/>
<path d="M249.222 301.428L253.401 300.179" stroke="#1F2F6D" stroke-linecap="round" stroke-linejoin="round"/>
<path d="M247.125 297.577L249.067 293.919" stroke="#1F2F6D" stroke-linecap="round" stroke-linejoin="round"/>
<path d="M241.688 296.231V291.912" stroke="#1F2F6D" stroke-linecap="round" stroke-linejoin="round"/>
<path d="M234.131 305.77L230.438 307.725" stroke="#1F2F6D" stroke-linecap="round" stroke-linejoin="round"/>
<path d="M233.572 301.428L229.386 300.179" stroke="#1F2F6D" stroke-linecap="round" stroke-linejoin="round"/>
<path d="M236.265 297.577L234.323 293.919" stroke="#1F2F6D" stroke-linecap="round" stroke-linejoin="round"/>
<path d="M303.464 235.77C312.166 232.128 316.298 222.047 312.694 213.253C309.089 204.46 299.113 200.284 290.411 203.926C281.709 207.569 277.576 217.65 281.181 226.443C284.785 235.237 294.762 239.413 303.464 235.77Z" fill="#FCE001" stroke="#AD6800" stroke-miterlimit="10"/>
<path fill-rule="evenodd" clip-rule="evenodd" d="M296.935 210.396C295.335 210.398 293.8 211.042 292.669 212.187C291.538 213.331 290.902 214.883 290.902 216.5C290.902 219.868 296.538 229.028 296.538 229.028C296.57 229.106 296.625 229.173 296.695 229.221C296.765 229.268 296.847 229.293 296.932 229.293C297.016 229.293 297.098 229.268 297.168 229.221C297.238 229.173 297.293 229.106 297.325 229.028C297.325 229.028 302.976 219.854 302.976 216.5C302.974 214.882 302.337 213.331 301.204 212.186C300.072 211.042 298.537 210.398 296.935 210.396ZM296.935 212.196C297.615 212.196 298.28 212.4 298.845 212.781C299.41 213.163 299.851 213.706 300.11 214.341C300.37 214.976 300.438 215.674 300.305 216.348C300.172 217.022 299.844 217.64 299.362 218.125C298.881 218.611 298.268 218.941 297.601 219.074C296.934 219.207 296.243 219.137 295.615 218.873C294.988 218.609 294.451 218.163 294.075 217.591C293.698 217.019 293.498 216.347 293.499 215.66C293.498 215.204 293.587 214.753 293.759 214.332C293.931 213.91 294.185 213.528 294.504 213.206C294.823 212.884 295.203 212.629 295.62 212.455C296.037 212.282 296.484 212.194 296.935 212.196Z" fill="#1F2F6D"/>
<path d="M44.0434 176.343C50.7036 169.613 50.7037 158.701 44.0434 151.971C37.3831 145.24 26.5846 145.24 19.9243 151.971C13.264 158.701 13.264 169.613 19.9243 176.343C26.5846 183.073 37.3831 183.073 44.0434 176.343Z" fill="#A1B3FF" stroke="#6579CF" stroke-miterlimit="10"/>
<path d="M34.2199 165.922C34.8147 165.004 35.711 164.327 36.7509 164.011C36.2284 163.719 35.8169 163.259 35.5812 162.704C35.3454 162.15 35.2988 161.532 35.4486 160.948C35.5671 160.47 35.8129 160.035 36.1593 159.689C36.5057 159.343 36.9393 159.099 37.413 158.985C38.0524 158.812 38.7324 158.882 39.3234 159.184C39.9143 159.485 40.3748 159.996 40.6169 160.618C40.8589 161.241 40.8656 161.931 40.6356 162.559C40.4057 163.186 39.9552 163.705 39.3702 164.018C40.317 164.32 41.144 164.919 41.7314 165.728C42.3188 166.536 42.636 167.513 42.6369 168.516V169.959C42.6379 170.084 42.6142 170.209 42.5673 170.325C42.5204 170.442 42.4512 170.547 42.3637 170.636C42.2761 170.726 42.172 170.796 42.0572 170.845C41.9425 170.893 41.8194 170.918 41.6951 170.918H34.4627C34.3384 170.918 34.2153 170.893 34.1006 170.845C33.9858 170.796 33.8817 170.726 33.7941 170.636C33.7066 170.547 33.6374 170.442 33.5905 170.325C33.5436 170.209 33.5199 170.084 33.5209 169.959V168.554C33.495 167.626 33.738 166.711 34.2199 165.922Z" fill="white"/>
<path d="M21.2779 165.922C21.8681 165.002 22.7626 164.325 23.8015 164.011C23.2775 163.718 22.8645 163.258 22.6276 162.702C22.3907 162.147 22.3433 161.527 22.4929 160.941C22.6424 160.355 22.9804 159.836 23.4537 159.466C23.927 159.095 24.5088 158.894 25.1075 158.894C25.7063 158.894 26.288 159.095 26.7613 159.466C27.2346 159.836 27.5726 160.355 27.7222 160.941C27.8717 161.527 27.8243 162.147 27.5874 162.702C27.3505 163.258 26.9375 163.718 26.4135 164.011C27.3597 164.314 28.1861 164.913 28.7733 165.721C29.3605 166.53 29.6781 167.506 29.6802 168.509V169.951C29.6802 170.206 29.5802 170.45 29.4022 170.629C29.2242 170.809 28.9828 170.91 28.7311 170.91H21.4913C21.2408 170.908 21.0013 170.806 20.8249 170.627C20.6485 170.447 20.5495 170.204 20.5495 169.951V168.546C20.5338 167.618 20.787 166.706 21.2779 165.922Z" fill="white"/>
<path d="M27.7896 163.699C28.444 163.049 29.2442 162.57 30.1219 162.301C29.4715 161.937 28.9592 161.365 28.6656 160.674C28.3719 159.984 28.3136 159.215 28.4997 158.487C28.6858 157.76 29.1059 157.115 29.6938 156.655C30.2818 156.195 31.0043 155.945 31.748 155.945C32.4916 155.945 33.2141 156.195 33.8021 156.655C34.39 157.115 34.8101 157.76 34.9962 158.487C35.1823 159.215 35.124 159.984 34.8303 160.674C34.5367 161.365 34.0244 161.937 33.374 162.301C34.5537 162.677 35.5842 163.423 36.3158 164.431C37.0474 165.439 37.4421 166.657 37.4427 167.907V169.736C37.4427 170.051 37.3187 170.354 37.0979 170.577C36.8771 170.8 36.5777 170.925 36.2655 170.925H27.2451C26.9329 170.925 26.6335 170.8 26.4127 170.577C26.192 170.354 26.0679 170.051 26.0679 169.736V167.825C26.0641 167.055 26.2147 166.293 26.5106 165.584C26.8065 164.875 27.2416 164.233 27.7896 163.699Z" fill="#1F2F6D"/>
<path d="M127.053 102.765C129.217 93.5012 123.539 84.2193 114.372 82.0329C105.205 79.8465 96.0195 85.5836 93.8559 94.8471C91.6922 104.111 97.3697 113.393 106.537 115.579C115.704 117.765 124.89 112.028 127.053 102.765Z" fill="#FF6666" stroke="#B53E44" stroke-miterlimit="10"/>
<path fill-rule="evenodd" clip-rule="evenodd" d="M103.454 103.172H104.661V97.3358C104.661 93.5812 107.133 91.5664 109.811 91.2764V89.1724C109.828 89.0042 109.907 88.8485 110.031 88.7354C110.156 88.6222 110.317 88.5596 110.484 88.5596C110.652 88.5596 110.813 88.6222 110.937 88.7354C111.062 88.8485 111.14 89.0042 111.157 89.1724V91.2764C113.814 91.5664 116.308 93.5886 116.308 97.3358V103.172H117.522C117.624 103.174 117.721 103.216 117.793 103.29C117.864 103.364 117.904 103.463 117.904 103.566V105.633C117.904 105.736 117.864 105.835 117.793 105.909C117.721 105.983 117.624 106.025 117.522 106.027H113.534C113.534 106.849 113.211 107.638 112.635 108.219C112.06 108.801 111.28 109.127 110.466 109.127C109.652 109.127 108.872 108.801 108.296 108.219C107.721 107.638 107.398 106.849 107.398 106.027H103.461C103.411 106.027 103.36 106.017 103.313 105.997C103.266 105.977 103.224 105.948 103.188 105.911C103.153 105.874 103.125 105.831 103.106 105.783C103.087 105.735 103.078 105.684 103.079 105.633V103.566C103.077 103.515 103.085 103.464 103.103 103.416C103.121 103.369 103.148 103.325 103.183 103.288C103.219 103.252 103.261 103.222 103.307 103.202C103.354 103.182 103.404 103.172 103.454 103.172Z" fill="#FCE001"/>
<path d="M73.7374 150.145C78.6866 150.145 82.6988 146.091 82.6988 141.089C82.6988 136.088 78.6866 132.034 73.7374 132.034C68.7881 132.034 64.7759 136.088 64.7759 141.089C64.7759 146.091 68.7881 150.145 73.7374 150.145Z" fill="#4DC7B8" stroke="#31897C" stroke-miterlimit="10"/>
<path fill-rule="evenodd" clip-rule="evenodd" d="M72.3982 145.201L69.1388 143.074C68.9751 142.968 68.8599 142.8 68.8186 142.607C68.7772 142.415 68.813 142.214 68.9181 142.048L69.2124 141.61C69.3162 141.464 69.4687 141.361 69.6419 141.32C69.815 141.279 69.997 141.302 70.1541 141.387L72.6189 143L76.9672 137.216C77.084 137.062 77.2554 136.961 77.445 136.933C77.6346 136.905 77.8274 136.953 77.9825 137.067L78.4166 137.364C78.5553 137.493 78.6402 137.669 78.6539 137.859C78.6676 138.048 78.609 138.236 78.4902 138.383L73.4871 145.074C73.3957 145.192 73.2688 145.277 73.1254 145.316C72.9821 145.355 72.8301 145.346 72.6925 145.29C72.5904 145.293 72.4892 145.27 72.3982 145.223V145.201Z" fill="white"/>
<path d="M258.962 262.842C264.631 260.469 267.323 253.902 264.975 248.174C262.627 242.445 256.128 239.725 250.459 242.098C244.791 244.471 242.099 251.038 244.447 256.766C246.795 262.494 253.294 265.214 258.962 262.842Z" fill="#EE5A30" stroke="#B53E44" stroke-miterlimit="10"/>
<path d="M258.47 258.009L254.666 254.165L250.862 257.92L249.31 256.351L253.107 252.507L249.31 248.745L250.951 247.087L254.666 250.931L258.47 247.087L260.03 248.664L256.307 252.507L260.111 256.351L258.47 258.009Z" fill="white"/>
<path d="M65.6881 71.7749H4.43664C2.18955 71.7749 0.36792 73.6157 0.36792 75.8863V118.346C0.36792 120.617 2.18955 122.458 4.43664 122.458H65.6881C67.9352 122.458 69.7568 120.617 69.7568 118.346V75.8863C69.7568 73.6157 67.9352 71.7749 65.6881 71.7749Z" fill="#A1B3FF" stroke="#6579CF" stroke-miterlimit="10"/>
<path d="M11.6176 84.3247H4.03198V91.99H11.6176V84.3247Z" fill="white" stroke="#6579CF" stroke-miterlimit="10"/>
<path d="M20.6969 84.3247H13.1113V91.99H20.6969V84.3247Z" fill="white" stroke="#6579CF" stroke-miterlimit="10"/>
<path d="M29.776 84.3247H22.1904V91.99H29.776V84.3247Z" fill="white" stroke="#6579CF" stroke-miterlimit="10"/>
<path d="M38.8551 84.3247H31.2695V91.99H38.8551V84.3247Z" fill="white" stroke="#6579CF" stroke-miterlimit="10"/>
<path d="M47.9342 84.3247H40.3486V91.99H47.9342V84.3247Z" fill="white" stroke="#6579CF" stroke-miterlimit="10"/>
<path d="M57.0136 84.3247H49.428V91.99H57.0136V84.3247Z" fill="white" stroke="#6579CF" stroke-miterlimit="10"/>
<path d="M66.0927 84.3247H58.5071V91.99H66.0927V84.3247Z" fill="#FF6666" stroke="#B53E44" stroke-miterlimit="10"/>
<path d="M11.6176 79.8413H4.03198V82.8598H11.6176V79.8413Z" fill="#FCE001" stroke="#F2A446" stroke-miterlimit="10"/>
<path d="M20.6969 79.8413H13.1113V82.8598H20.6969V79.8413Z" fill="#FCE001" stroke="#F2A446" stroke-miterlimit="10"/>
<path d="M29.776 79.8413H22.1904V82.8598H29.776V79.8413Z" fill="#FCE001" stroke="#F2A446" stroke-miterlimit="10"/>
<path d="M38.8551 79.8413H31.2695V82.8598H38.8551V79.8413Z" fill="#FCE001" stroke="#F2A446" stroke-miterlimit="10"/>
<path d="M47.9342 79.8413H40.3486V82.8598H47.9342V79.8413Z" fill="#FCE001" stroke="#F2A446" stroke-miterlimit="10"/>
<path d="M57.0136 79.8413H49.428V82.8598H57.0136V79.8413Z" fill="#FCE001" stroke="#F2A446" stroke-miterlimit="10"/>
<path d="M66.0927 79.8413H58.5071V82.8598H66.0927V79.8413Z" fill="#FCE001" stroke="#F2A446" stroke-miterlimit="10"/>
<path d="M11.6176 93.3433H4.03198V101.009H11.6176V93.3433Z" fill="white" stroke="#6579CF" stroke-miterlimit="10"/>
<path d="M20.6969 93.3433H13.1113V101.009H20.6969V93.3433Z" fill="white" stroke="#6579CF" stroke-miterlimit="10"/>
<path d="M29.776 93.3433H22.1904V101.009H29.776V93.3433Z" fill="white" stroke="#6579CF" stroke-miterlimit="10"/>
<path d="M38.8551 93.3433H31.2695V101.009H38.8551V93.3433Z" fill="white" stroke="#6579CF" stroke-miterlimit="10"/>
<path d="M47.9342 93.3433H40.3486V101.009H47.9342V93.3433Z" fill="white" stroke="#6579CF" stroke-miterlimit="10"/>
<path d="M57.0136 93.3433H49.428V101.009H57.0136V93.3433Z" fill="white" stroke="#6579CF" stroke-miterlimit="10"/>
<path d="M66.0927 93.3433H58.5071V101.009H66.0927V93.3433Z" fill="#FF6666" stroke="#B53E44" stroke-miterlimit="10"/>
<path d="M11.6176 102.361H4.03198V110.027H11.6176V102.361Z" fill="white" stroke="#6579CF" stroke-miterlimit="10"/>
<path d="M20.6969 102.361H13.1113V110.027H20.6969V102.361Z" fill="white" stroke="#6579CF" stroke-miterlimit="10"/>
<path d="M29.776 102.361H22.1904V110.027H29.776V102.361Z" fill="white" stroke="#6579CF" stroke-miterlimit="10"/>
<path d="M38.8551 102.361H31.2695V110.027H38.8551V102.361Z" fill="white" stroke="#6579CF" stroke-miterlimit="10"/>
<path d="M47.9342 102.361H40.3486V110.027H47.9342V102.361Z" fill="white" stroke="#6579CF" stroke-miterlimit="10"/>
<path d="M57.0136 102.361H49.428V110.027H57.0136V102.361Z" fill="white" stroke="#6579CF" stroke-miterlimit="10"/>
<path d="M66.0927 102.361H58.5071V110.027H66.0927V102.361Z" fill="#FF6666" stroke="#B53E44" stroke-miterlimit="10"/>
<path d="M11.6176 111.38H4.03198V119.045H11.6176V111.38Z" fill="white" stroke="#6579CF" stroke-miterlimit="10"/>
<path d="M20.6969 111.38H13.1113V119.045H20.6969V111.38Z" fill="white" stroke="#6579CF" stroke-miterlimit="10"/>
<path d="M29.776 111.38H22.1904V119.045H29.776V111.38Z" fill="white" stroke="#6579CF" stroke-miterlimit="10"/>
<path d="M38.8551 111.38H31.2695V119.045H38.8551V111.38Z" fill="white" stroke="#6579CF" stroke-miterlimit="10"/>
<path d="M47.9342 111.38H40.3486V119.045H47.9342V111.38Z" fill="white" stroke="#6579CF" stroke-miterlimit="10"/>
<path d="M57.0136 111.38H49.428V119.045H57.0136V111.38Z" fill="white" stroke="#6579CF" stroke-miterlimit="10"/>
<path d="M66.0927 111.38H58.5071V119.045H66.0927V111.38Z" fill="#FF6666" stroke="#B53E44" stroke-miterlimit="10"/>
<path d="M9.04962 89.9381L7.81356 88.6891L6.57749 89.9084L6.06982 89.3954L7.30589 88.1463L6.06982 86.927L6.59957 86.3843L7.81356 87.6333L9.04962 86.3843L9.55729 86.8973L8.3433 88.1463L9.57937 89.3954L9.04962 89.9381Z" fill="#FF6666"/>
<path d="M36.2874 98.9639L35.0514 97.7148L33.8153 98.9416L33.3076 98.4286L34.5437 97.1795L33.3076 95.9528L33.8374 95.4175L35.0514 96.6665L36.2874 95.4175L36.7951 95.9305L35.5811 97.1795L36.8172 98.4286L36.2874 98.9639Z" fill="#FF6666"/>
<path d="M18.129 107.975L16.8929 106.726L15.6568 107.945L15.1492 107.432L16.3852 106.183L15.1492 104.964L15.6789 104.421L16.8929 105.67L18.129 104.421L18.6366 104.934L17.4226 106.183L18.6587 107.432L18.129 107.975Z" fill="#FF6666"/>
<path d="M7.44583 68.3696H7.08531C6.35795 68.3696 5.76831 68.9655 5.76831 69.7005V74.3918C5.76831 75.1268 6.35795 75.7226 7.08531 75.7226H7.44583C8.17319 75.7226 8.76283 75.1268 8.76283 74.3918V69.7005C8.76283 68.9655 8.17319 68.3696 7.44583 68.3696Z" fill="#266193" stroke="#1F2F6D" stroke-miterlimit="10"/>
<path d="M13.0081 68.3696H12.6476C11.9202 68.3696 11.3306 68.9655 11.3306 69.7005V74.3918C11.3306 75.1268 11.9202 75.7226 12.6476 75.7226H13.0081C13.7354 75.7226 14.3251 75.1268 14.3251 74.3918V69.7005C14.3251 68.9655 13.7354 68.3696 13.0081 68.3696Z" fill="#266193" stroke="#1F2F6D" stroke-miterlimit="10"/>
<path d="M18.563 68.3696H18.2025C17.4751 68.3696 16.8855 68.9655 16.8855 69.7005V74.3918C16.8855 75.1268 17.4751 75.7226 18.2025 75.7226H18.563C19.2904 75.7226 19.88 75.1268 19.88 74.3918V69.7005C19.88 68.9655 19.2904 68.3696 18.563 68.3696Z" fill="#266193" stroke="#1F2F6D" stroke-miterlimit="10"/>
<path d="M24.1253 68.3696H23.7648C23.0374 68.3696 22.4478 68.9655 22.4478 69.7005V74.3918C22.4478 75.1268 23.0374 75.7226 23.7648 75.7226H24.1253C24.8526 75.7226 25.4423 75.1268 25.4423 74.3918V69.7005C25.4423 68.9655 24.8526 68.3696 24.1253 68.3696Z" fill="#266193" stroke="#1F2F6D" stroke-miterlimit="10"/>
<path d="M29.6804 68.3696H29.3199C28.5926 68.3696 28.0029 68.9655 28.0029 69.7005V74.3918C28.0029 75.1268 28.5926 75.7226 29.3199 75.7226H29.6804C30.4078 75.7226 30.9974 75.1268 30.9974 74.3918V69.7005C30.9974 68.9655 30.4078 68.3696 29.6804 68.3696Z" fill="#266193" stroke="#1F2F6D" stroke-miterlimit="10"/>
<path d="M35.2427 68.3696H34.8822C34.1548 68.3696 33.5652 68.9655 33.5652 69.7005V74.3918C33.5652 75.1268 34.1548 75.7226 34.8822 75.7226H35.2427C35.9701 75.7226 36.5597 75.1268 36.5597 74.3918V69.7005C36.5597 68.9655 35.9701 68.3696 35.2427 68.3696Z" fill="#266193" stroke="#1F2F6D" stroke-miterlimit="10"/>
<path d="M40.805 68.3696H40.4444C39.7171 68.3696 39.1274 68.9655 39.1274 69.7005V74.3918C39.1274 75.1268 39.7171 75.7226 40.4444 75.7226H40.805C41.5323 75.7226 42.122 75.1268 42.122 74.3918V69.7005C42.122 68.9655 41.5323 68.3696 40.805 68.3696Z" fill="#266193" stroke="#1F2F6D" stroke-miterlimit="10"/>
<path d="M46.3599 68.3696H45.9994C45.272 68.3696 44.6824 68.9655 44.6824 69.7005V74.3918C44.6824 75.1268 45.272 75.7226 45.9994 75.7226H46.3599C47.0872 75.7226 47.6769 75.1268 47.6769 74.3918V69.7005C47.6769 68.9655 47.0872 68.3696 46.3599 68.3696Z" fill="#266193" stroke="#1F2F6D" stroke-miterlimit="10"/>
<path d="M51.9221 68.3696H51.5616C50.8343 68.3696 50.2446 68.9655 50.2446 69.7005V74.3918C50.2446 75.1268 50.8343 75.7226 51.5616 75.7226H51.9221C52.6495 75.7226 53.2391 75.1268 53.2391 74.3918V69.7005C53.2391 68.9655 52.6495 68.3696 51.9221 68.3696Z" fill="#266193" stroke="#1F2F6D" stroke-miterlimit="10"/>
<path d="M57.4771 68.3696H57.1166C56.3892 68.3696 55.7996 68.9655 55.7996 69.7005V74.3918C55.7996 75.1268 56.3892 75.7226 57.1166 75.7226H57.4771C58.2044 75.7226 58.7941 75.1268 58.7941 74.3918V69.7005C58.7941 68.9655 58.2044 68.3696 57.4771 68.3696Z" fill="#266193" stroke="#1F2F6D" stroke-miterlimit="10"/>
<path d="M63.0393 68.3696H62.6788C61.9515 68.3696 61.3618 68.9655 61.3618 69.7005V74.3918C61.3618 75.1268 61.9515 75.7226 62.6788 75.7226H63.0393C63.7667 75.7226 64.3563 75.1268 64.3563 74.3918V69.7005C64.3563 68.9655 63.7667 68.3696 63.0393 68.3696Z" fill="#266193" stroke="#1F2F6D" stroke-miterlimit="10"/>
</g>
<defs>
<clipPath id="clip0_3_2185">
<rect width="330" height="268" fill="white" transform="translate(0 68)"/>
</clipPath>
</defs>
</svg>
